<svg width="11134" height="4203" viewBox="0 0 11134 4203" fill="none" xmlns="http://www.w3.org/2000/svg">
<path fill-rule="evenodd" clip-rule="evenodd" d="M5013.84 1594.8C4944.43 1621.67 4884.93 1762.77 4875.01 1768.37C4857.66 1778.45 4845.26 1733.66 4841.54 1710.14C4836.58 1710.14 4814.27 1728.06 4826.67 1748.21C4819.23 1747.09 4808.07 1753.81 4803.11 1758.29C4793.2 1737.02 4764.69 1742.61 4762.21 1745.97C4780.8 1762.77 4809.31 1799.73 4789.48 1805.33C4778.32 1809.8 4619.66 1762.77 4552.72 1795.25C4509.33 1807.57 4439.92 1928.51 4430 1954.26C4487.02 1904.99 4557.68 1908.35 4575.03 1941.95C4602.3 1897.15 4676.68 1904.99 4694.03 1937.47C4716.34 1907.23 4738.66 1884.83 4789.48 1892.67C4840.3 1899.39 4904.76 1927.39 4904.76 1927.39C4904.76 1927.39 4915.92 1876.99 4932.03 1844.52C4948.15 1812.04 4991.53 1766.13 5048.55 1784.05C5031.2 1751.57 5058.47 1700.06 5126.65 1703.42C5105.57 1665.35 5152.68 1617.19 5228.29 1608.23C5194.82 1595.92 5051.03 1571.28 5013.84 1594.8Z" fill="url(#paint0_linear_4_3)"/>
<path d="M3742 2090C3752.67 2090 3760.67 2093 3766 2099C3771.33 2104.33 3776 2112.67 3780 2124L4025 2756C4025.67 2758 4026 2760.33 4026 2763C4026 2770.33 4023.33 2776.67 4018 2782C4012.67 2787.33 4006.33 2790 3999 2790H3927C3913.67 2790 3904.33 2787.33 3899 2782C3893.67 2776 3890 2770.33 3888 2765L3845 2654H3529L3486 2765C3484 2770.33 3480.33 2776 3475 2782C3469.67 2787.33 3460.33 2790 3447 2790H3375C3367.67 2790 3361.33 2787.33 3356 2782C3350.67 2776.67 3348 2770.33 3348 2763C3348 2760.33 3348.33 2758 3349 2756L3594 2124C3598 2112.67 3602.67 2104.33 3608 2099C3613.33 2093 3621.33 2090 3632 2090H3742ZM3797 2529L3687 2244L3577 2529H3797ZM4571.1 2790C4559.77 2790 4551.1 2787 4545.1 2781C4539.1 2775 4534.77 2770.33 4532.1 2767L4252.1 2351V2763C4252.1 2770.33 4249.43 2776.67 4244.1 2782C4238.77 2787.33 4232.43 2790 4225.1 2790H4144.1C4136.77 2790 4130.43 2787.33 4125.1 2782C4119.77 2776.67 4117.1 2770.33 4117.1 2763V2117C4117.1 2109.67 4119.77 2103.33 4125.1 2098C4130.43 2092.67 4136.77 2090 4144.1 2090H4214.1C4225.43 2090 4234.1 2093 4240.1 2099C4246.1 2105 4250.43 2109.67 4253.1 2113L4533.1 2529V2117C4533.1 2109.67 4535.77 2103.33 4541.1 2098C4546.43 2092.67 4552.77 2090 4560.1 2090H4641.1C4648.43 2090 4654.77 2092.67 4660.1 2098C4665.43 2103.33 4668.1 2109.67 4668.1 2117V2763C4668.1 2770.33 4665.43 2776.67 4660.1 2782C4654.77 2787.33 4648.43 2790 4641.1 2790H4571.1ZM4851.13 2790C4843.8 2790 4837.47 2787.33 4832.13 2782C4826.8 2776.67 4824.13 2770.33 4824.13 2763V2117C4824.13 2109.67 4826.8 2103.33 4832.13 2098C4837.47 2092.67 4843.8 2090 4851.13 2090H4932.13C4939.47 2090 4945.8 2092.67 4951.13 2098C4956.47 2103.33 4959.13 2109.67 4959.13 2117V2763C4959.13 2770.33 4956.47 2776.67 4951.13 2782C4945.8 2787.33 4939.47 2790 4932.13 2790H4851.13ZM5443.15 2447L5633.15 2117C5635.82 2113.67 5640.15 2108.33 5646.15 2101C5652.82 2093.67 5662.82 2090 5676.15 2090H5744.15C5751.48 2090 5757.82 2092.67 5763.15 2098C5768.48 2103.33 5771.15 2109.67 5771.15 2117V2763C5771.15 2770.33 5768.48 2776.67 5763.15 2782C5757.82 2787.33 5751.48 2790 5744.15 2790H5663.15C5655.82 2790 5649.48 2787.33 5644.15 2782C5638.82 2776.67 5636.15 2770.33 5636.15 2763V2372L5506.15 2597C5502.82 2602.33 5498.15 2608 5492.15 2614C5486.15 2619.33 5478.48 2622 5469.15 2622H5417.15C5407.82 2622 5400.15 2619.33 5394.15 2614C5388.15 2608 5383.48 2602.33 5380.15 2597L5250.15 2372V2763C5250.15 2770.33 5247.48 2776.67 5242.15 2782C5236.82 2787.33 5230.48 2790 5223.15 2790H5142.15C5134.82 2790 5128.48 2787.33 5123.15 2782C5117.82 2776.67 5115.15 2770.33 5115.15 2763V2117C5115.15 2109.67 5117.82 2103.33 5123.15 2098C5128.48 2092.67 5134.82 2090 5142.15 2090H5210.15C5223.48 2090 5233.15 2093.67 5239.15 2101C5245.82 2108.33 5250.48 2113.67 5253.15 2117L5443.15 2447ZM6392.67 2665C6400.01 2665 6406.34 2667.67 6411.67 2673C6417.01 2678.33 6419.67 2684.67 6419.67 2692V2763C6419.67 2770.33 6417.01 2776.67 6411.67 2782C6406.34 2787.33 6400.01 2790 6392.67 2790H5953.67C5946.34 2790 5940.01 2787.33 5934.67 2782C5929.34 2776.67 5926.67 2770.33 5926.67 2763V2117C5926.67 2109.67 5929.34 2103.33 5934.67 2098C5940.01 2092.67 5946.34 2090 5953.67 2090H6384.67C6392.01 2090 6398.34 2092.67 6403.67 2098C6409.01 2103.33 6411.67 2109.67 6411.67 2117V2188C6411.67 2195.33 6409.01 2201.67 6403.67 2207C6398.34 2212.33 6392.01 2215 6384.67 2215H6061.67V2374H6362.67C6370.01 2374 6376.34 2376.67 6381.67 2382C6387.01 2387.33 6389.67 2393.67 6389.67 2401V2472C6389.67 2479.33 6387.01 2485.67 6381.67 2491C6376.34 2496.33 6370.01 2499 6362.67 2499H6061.67V2665H6392.67ZM6783.86 2080C6828.53 2080 6867.86 2086 6901.86 2098C6935.86 2110 6964.19 2125 6986.86 2143C7009.53 2161 7026.53 2181 7037.86 2203C7049.86 2224.33 7056.53 2244.67 7057.86 2264C7058.53 2272 7055.86 2278.67 7049.86 2284C7044.53 2288.67 7038.19 2291 7030.86 2291H6960.86C6949.53 2291 6940.86 2289 6934.86 2285C6929.53 2280.33 6924.53 2274.33 6919.86 2267C6909.86 2250.33 6894.53 2236 6873.86 2224C6853.86 2211.33 6823.86 2205 6783.86 2205C6766.53 2205 6749.86 2207 6733.86 2211C6718.53 2214.33 6704.86 2219.67 6692.86 2227C6681.53 2233.67 6672.53 2242 6665.86 2252C6659.19 2262 6655.86 2273.33 6655.86 2286C6655.86 2301.33 6658.86 2314 6664.86 2324C6671.53 2333.33 6682.19 2341.67 6696.86 2349C6712.19 2355.67 6732.19 2362 6756.86 2368C6781.53 2374 6812.19 2381 6848.86 2389C6888.86 2397.67 6923.19 2408 6951.86 2420C6981.19 2431.33 7004.86 2445.33 7022.86 2462C7041.53 2478 7055.19 2496.67 7063.86 2518C7073.19 2539.33 7077.86 2563.67 7077.86 2591C7077.86 2621 7071.19 2649 7057.86 2675C7044.53 2700.33 7025.53 2722.33 7000.86 2741C6976.19 2759 6945.86 2773.33 6909.86 2784C6873.86 2794.67 6833.53 2800 6788.86 2800C6751.53 2800 6715.86 2795.67 6681.86 2787C6647.86 2777.67 6617.53 2764.67 6590.86 2748C6564.86 2730.67 6543.86 2710 6527.86 2686C6511.86 2662 6502.86 2635.33 6500.86 2606C6500.19 2598 6502.53 2591.67 6507.86 2587C6513.86 2581.67 6520.53 2579 6527.86 2579H6597.86C6609.19 2579 6617.86 2581 6623.86 2585C6629.86 2589 6634.86 2595 6638.86 2603C6643.53 2611.67 6649.19 2620.33 6655.86 2629C6662.53 2637.67 6671.53 2645.33 6682.86 2652C6694.19 2658.67 6708.19 2664.33 6724.86 2669C6742.19 2673 6763.53 2675 6788.86 2675C6808.86 2675 6828.19 2673.67 6846.86 2671C6865.53 2667.67 6881.86 2662.67 6895.86 2656C6909.86 2648.67 6921.19 2640 6929.86 2630C6938.53 2619.33 6942.86 2606.33 6942.86 2591C6942.86 2576.33 6938.19 2564.33 6928.86 2555C6919.53 2545.67 6905.19 2537.67 6885.86 2531C6867.19 2524.33 6843.86 2518 6815.86 2512C6787.86 2506 6755.53 2498.33 6718.86 2489C6685.53 2481 6656.19 2471.67 6630.86 2461C6606.19 2449.67 6585.53 2436 6568.86 2420C6552.86 2404 6540.86 2385.33 6532.86 2364C6524.86 2342 6520.86 2316 6520.86 2286C6520.86 2256 6527.53 2228.33 6540.86 2203C6554.19 2177.67 6572.53 2156 6595.86 2138C6619.19 2120 6646.86 2106 6678.86 2096C6711.53 2085.33 6746.53 2080 6783.86 2080ZM7509.44 2457L7423.44 2756C7420.1 2766 7415.77 2774.33 7410.44 2781C7405.77 2787 7398.44 2790 7388.44 2790H7307.44C7297.44 2790 7289.44 2787 7283.44 2781C7278.1 2774.33 7274.44 2766 7272.44 2756L7144.44 2125C7143.77 2121.67 7143.44 2119 7143.44 2117C7143.44 2109.67 7146.1 2103.33 7151.44 2098C7156.77 2092.67 7163.1 2090 7170.44 2090H7244.44C7251.1 2090 7257.44 2092 7263.44 2096C7269.44 2100 7273.44 2107 7275.44 2117L7359.44 2541L7433.44 2274C7434.77 2269.33 7437.77 2263.33 7442.44 2256C7447.77 2248.67 7456.44 2245 7468.44 2245H7550.44C7562.44 2245 7570.77 2248.67 7575.44 2256C7580.77 2263.33 7584.1 2269.33 7585.44 2274L7659.44 2541L7743.44 2117C7745.44 2107 7749.44 2100 7755.44 2096C7761.44 2092 7767.77 2090 7774.44 2090H7848.44C7855.77 2090 7862.1 2092.67 7867.44 2098C7872.77 2103.33 7875.44 2109.67 7875.44 2117C7875.44 2119 7875.1 2121.67 7874.44 2125L7746.44 2756C7744.44 2766 7740.44 2774.33 7734.44 2781C7729.1 2787 7721.44 2790 7711.44 2790H7630.44C7620.44 2790 7612.77 2787 7607.44 2781C7602.77 2774.33 7598.77 2766 7595.44 2756L7509.44 2457ZM8279.11 2090C8289.78 2090 8297.78 2093 8303.11 2099C8308.44 2104.33 8313.11 2112.67 8317.11 2124L8562.11 2756C8562.78 2758 8563.11 2760.33 8563.11 2763C8563.11 2770.33 8560.44 2776.67 8555.11 2782C8549.78 2787.33 8543.44 2790 8536.11 2790H8464.11C8450.78 2790 8441.44 2787.33 8436.11 2782C8430.78 2776 8427.11 2770.33 8425.11 2765L8382.11 2654H8066.11L8023.11 2765C8021.11 2770.33 8017.44 2776 8012.11 2782C8006.78 2787.33 7997.44 2790 7984.11 2790H7912.11C7904.78 2790 7898.44 2787.33 7893.11 2782C7887.78 2776.67 7885.11 2770.33 7885.11 2763C7885.11 2760.33 7885.44 2758 7886.11 2756L8131.11 2124C8135.11 2112.67 8139.78 2104.33 8145.11 2099C8150.44 2093 8158.44 2090 8169.11 2090H8279.11ZM8334.11 2529L8224.11 2244L8114.11 2529H8334.11ZM9048.92 2090C9056.26 2090 9062.59 2092.67 9067.92 2098C9073.26 2103.33 9075.92 2109.67 9075.92 2117V2188C9075.92 2195.33 9073.26 2201.67 9067.92 2207C9062.59 2212.33 9056.26 2215 9048.92 2215H8868.92V2763C8868.92 2770.33 8866.26 2776.67 8860.92 2782C8855.59 2787.33 8849.26 2790 8841.92 2790H8760.92C8753.59 2790 8747.26 2787.33 8741.92 2782C8736.59 2776.67 8733.92 2770.33 8733.92 2763V2215H8553.92C8546.59 2215 8540.26 2212.33 8534.92 2207C8529.59 2201.67 8526.92 2195.33 8526.92 2188V2117C8526.92 2109.67 8529.59 2103.33 8534.92 2098C8540.26 2092.67 8546.59 2090 8553.92 2090H9048.92ZM9592.02 2568C9593.36 2559.33 9596.69 2553 9602.02 2549C9608.02 2544.33 9614.36 2542 9621.02 2542H9702.02C9709.36 2542 9715.69 2544.67 9721.02 2550C9727.02 2554.67 9729.69 2561 9729.02 2569C9727.02 2596.33 9720.02 2623.67 9708.02 2651C9696.69 2678.33 9679.02 2703 9655.02 2725C9631.02 2747 9600.69 2765 9564.02 2779C9527.36 2793 9483.02 2800 9431.02 2800C9385.02 2800 9344.36 2793.33 9309.02 2780C9273.69 2766 9243.69 2747 9219.02 2723C9194.36 2698.33 9175.02 2669 9161.02 2635C9147.69 2601 9139.69 2564 9137.02 2524C9135.69 2498.67 9135.02 2470.67 9135.02 2440C9135.02 2409.33 9135.69 2381.33 9137.02 2356C9139.69 2316 9147.69 2279 9161.02 2245C9175.02 2211 9194.36 2182 9219.02 2158C9243.69 2133.33 9273.69 2114.33 9309.02 2101C9344.36 2087 9385.02 2080 9431.02 2080C9483.02 2080 9527.36 2087 9564.02 2101C9600.69 2115 9631.02 2133 9655.02 2155C9679.02 2177 9696.69 2202 9708.02 2230C9720.02 2257.33 9727.02 2284.33 9729.02 2311C9729.69 2319 9727.02 2325.67 9721.02 2331C9715.69 2335.67 9709.36 2338 9702.02 2338H9621.02C9614.36 2338 9608.02 2336 9602.02 2332C9596.02 2327.33 9592.36 2320.67 9591.02 2312C9589.02 2298.67 9584.36 2285.67 9577.02 2273C9569.69 2260.33 9559.69 2249 9547.02 2239C9534.36 2229 9518.36 2221 9499.02 2215C9479.69 2208.33 9457.02 2205 9431.02 2205C9405.02 2205 9382.36 2209 9363.02 2217C9343.69 2225 9327.36 2235.67 9314.02 2249C9301.36 2262.33 9291.36 2278.33 9284.02 2297C9277.36 2315.67 9273.36 2335.33 9272.02 2356C9270.69 2381.33 9270.02 2409.33 9270.02 2440C9270.02 2470.67 9270.69 2498.67 9272.02 2524C9273.36 2545.33 9277.36 2565.33 9284.02 2584C9291.36 2602 9301.36 2617.67 9314.02 2631C9327.36 2644.33 9343.69 2655 9363.02 2663C9382.36 2671 9405.02 2675 9431.02 2675C9457.02 2675 9479.69 2672 9499.02 2666C9518.36 2659.33 9534.36 2651 9547.02 2641C9560.36 2631 9570.69 2619.67 9578.02 2607C9585.36 2594.33 9590.02 2581.33 9592.02 2568ZM10390.6 2090C10398 2090 10404.3 2092.67 10409.6 2098C10415 2103.33 10417.6 2109.67 10417.6 2117V2763C10417.6 2770.33 10415 2776.67 10409.6 2782C10404.3 2787.33 10398 2790 10390.6 2790H10309.6C10302.3 2790 10296 2787.33 10290.6 2782C10285.3 2776.67 10282.6 2770.33 10282.6 2763V2499H9980.62V2763C9980.62 2770.33 9977.95 2776.67 9972.62 2782C9967.28 2787.33 9960.95 2790 9953.62 2790H9872.62C9865.28 2790 9858.95 2787.67 9853.62 2783C9848.28 2777.67 9845.62 2771 9845.62 2763V2117C9845.62 2109.67 9848.28 2103.33 9853.62 2098C9858.95 2092.67 9865.28 2090 9872.62 2090H9953.62C9960.95 2090 9967.28 2092.67 9972.62 2098C9977.95 2103.33 9980.62 2109.67 9980.62 2117V2374H10282.6V2117C10282.6 2109.67 10285.3 2103.33 10290.6 2098C10296 2092.67 10302.3 2090 10309.6 2090H10390.6Z" fill="url(#paint1_linear_4_3)"/>
<path opacity="0.54" d="M1516.2 3232.4C1502.4 3230.6 945.6 3174.8 936.6 2978C927.6 2781.2 1205.4 2766.8 1219.2 2661.2C1233 2555.6 690.6 2541.2 769.2 2272.4C847.8 2003.6 1084.8 2061.2 1195.8 1941.2C1307.4 1821.2 978 1408.4 1135.8 1283.6C1293.6 1158.8 1641 1283.6 1757.4 1331.6C1873.2 1379.6 2044.8 1422.8 2086.8 1317.2C2128.8 1211.6 1836 1259.6 1836 1144.4C1836 1029.2 2053.8 976.4 2053.8 976.4C2053.8 976.4 1873.2 1053.2 1942.2 1106C2011.8 1158.8 2378.4 1101.2 2499 1254.8C2619.6 1408.4 2392.2 1475.6 2443.2 1605.2C2494.2 1734.8 3134.4 1874 3148.2 2099.6C3162 2325.2 2665.8 2411.6 2726.4 2570C2786.4 2728.4 3083.4 2766.8 3032.4 3002C2981.4 3237.2 2308.8 3333.2 1516.2 3232.4Z" fill="url(#paint2_linear_4_3)"/>
<path d="M1954.8 3435.8C2476.05 3435.8 2898.6 3013.25 2898.6 2492C2898.6 1970.75 2476.05 1548.2 1954.8 1548.2C1433.55 1548.2 1011 1970.75 1011 2492C1011 3013.25 1433.55 3435.8 1954.8 3435.8Z" fill="url(#paint3_linear_4_3)"/>
<path opacity="0.2" d="M1648.8 1772.6C1595.4 1766.6 1539 1789.4 1497.6 1823C1467 1848.2 1444.2 1890.8 1456.8 1928.6C1459.8 1941.2 1466.4 1953.2 1476.6 1963.4C1547.4 2033.6 1701 1968.2 1729.2 1883C1748.4 1826 1702.8 1778.6 1648.8 1772.6Z" fill="url(#paint4_linear_4_3)"/>
<path opacity="0.2" d="M2020.8 1668.8C1998 1643.6 1959 1632.8 1920 1634.6C1914 1632.8 1908 1632.2 1900.8 1633.4C1859.4 1640 1798.8 1662.2 1784.4 1707.2C1769.4 1755.2 1814.4 1786.4 1855.8 1793C1897.2 1800.2 1940.4 1792.4 1977 1772C2012.4 1752.2 2057.4 1709.6 2020.8 1668.8Z" fill="url(#paint5_linear_4_3)"/>
<path opacity="0.2" d="M1908 1871.6C1905 1850 1889.4 1833.2 1867.8 1829C1864.2 1828.4 1860.6 1827.8 1856.4 1827.8C1852.2 1826.6 1848 1826 1843.8 1826C1835.4 1826 1824.6 1828.4 1817.4 1832.6C1799.4 1843.4 1788.6 1862 1791.6 1883C1797 1924.4 1843.8 1944.8 1879.8 1923.2C1897.8 1913 1911 1893.8 1908 1871.6Z" fill="url(#paint6_linear_4_3)"/>
<path opacity="0.2" d="M2584.8 1887.2C2523 1871 2458.2 1883.6 2400.6 1908.8C2349.6 1931 2282.4 1967.6 2264.4 2024.6C2263.8 2027 2263.2 2029.4 2262.6 2031.8C2254.2 2050.4 2250.6 2070.2 2253.6 2090C2263.2 2151.8 2337.6 2173.4 2391 2180C2452.8 2187.8 2516.4 2174.6 2569.8 2142.2C2617.2 2113.4 2668.8 2064.2 2679 2007.8C2690.4 1945.4 2640 1901.6 2584.8 1887.2Z" fill="url(#paint7_linear_4_3)"/>
<path opacity="0.2" d="M2074.8 2102.6C2051.4 2096 2029.2 2094.2 2006.4 2104.4C1985.4 2114 1971.6 2136.2 1972.2 2159.6C1972.8 2183 1987.8 2202.8 2010 2209.4C2012.4 2210.6 2015.4 2211.8 2018.4 2212.4C2039.4 2218.4 2064.6 2211.8 2080.2 2196.2C2095.8 2180.6 2101.2 2160.8 2103.6 2139.2C2105.4 2123.6 2089.8 2106.8 2074.8 2102.6Z" fill="url(#paint8_linear_4_3)"/>
<path opacity="0.2" d="M1539 2196.2C1504.2 2176.4 1458.6 2176.4 1420.2 2180C1414.8 2180.6 1410 2181.2 1404.6 2181.8C1401.6 2181.2 1398.6 2181.2 1395.6 2181.2C1345.8 2182.4 1300.2 2202.8 1257 2226.8C1219.8 2247.2 1187.4 2277.2 1180.2 2321C1163.4 2424.8 1296 2447.6 1371.6 2438C1446.6 2428.4 1553.4 2384.6 1578.6 2305.4C1591.8 2264 1577.4 2217.8 1539 2196.2Z" fill="url(#paint9_linear_4_3)"/>
<path d="M2659.8 2726C2655.6 2730.8 2647.2 2736.8 2639.4 2756.6C2638.8 2758.4 2638.2 2760.2 2637 2762C2635.8 2764.4 2632.8 2764.4 2631.6 2762C2628 2757.2 2628 2748.8 2616 2735.6C2609.4 2727.8 2602.2 2724.8 2608.2 2720C2622.6 2708 2627.4 2689.4 2629.8 2684.6C2631 2682.8 2633.4 2682.2 2635.2 2684C2637 2685.8 2637.6 2688.2 2638.8 2690.6C2646 2707.4 2655.6 2715.2 2659.2 2719.4C2659.8 2720.6 2661 2724.2 2659.8 2726Z" fill="#FFE8D7"/>
<path d="M2173.2 1505.6C2170.2 1508.6 2164.8 1512.8 2159.4 1526.6C2158.8 1527.8 2158.2 1529 2157.6 1530.2C2157 1532 2154.6 1532 2154 1530.2C2151.6 1526.6 2151.6 1521.8 2143.8 1512.2C2139 1506.8 2134.8 1505 2138.4 1502C2148 1493.6 2151.6 1481.6 2152.8 1478.6C2153.4 1477.4 2155.2 1476.8 2156.4 1478.6C2157.6 1479.8 2158.2 1481.6 2158.8 1482.8C2163.6 1494.2 2170.2 1499.6 2172.6 1502C2173.2 1502 2173.8 1504.4 2173.2 1505.6Z" fill="#FFE8D7"/>
<path d="M2725.8 2787.2C2722.8 2790.2 2717.4 2794.4 2712 2808.2C2711.4 2809.4 2710.8 2810.6 2710.2 2811.8C2709.6 2813.6 2707.2 2813.6 2706.6 2811.8C2704.2 2808.2 2704.2 2803.4 2696.4 2793.8C2691.6 2788.4 2687.4 2786.6 2691 2783.6C2700.6 2775.2 2704.2 2763.2 2705.4 2760.2C2706 2759 2707.8 2758.4 2709 2760.2C2710.2 2761.4 2710.8 2763.2 2711.4 2764.4C2716.2 2775.8 2722.8 2781.2 2725.2 2783.6C2726.4 2784.2 2727 2786.6 2725.8 2787.2Z" fill="#FFE8D7"/>
<path d="M2899.8 2072C2896.8 2075 2891.4 2079.2 2886 2093C2885.4 2094.2 2884.8 2095.4 2884.2 2096.6C2883.6 2098.4 2881.2 2098.4 2880.6 2096.6C2878.2 2093 2878.2 2088.2 2870.4 2078.6C2865.6 2073.2 2861.4 2071.4 2865 2068.4C2874.6 2060 2878.2 2048 2879.4 2045C2880 2043.8 2881.8 2043.2 2883 2045C2884.2 2046.2 2884.8 2048 2885.4 2049.2C2890.2 2060.6 2896.8 2066 2899.2 2068.4C2899.8 2068.4 2901 2070.8 2899.8 2072Z" fill="#FFE8D7"/>
<path d="M2764.8 2662.4C2760 2667.8 2750.4 2675 2741.4 2697.8C2740.8 2699.6 2739.6 2702 2739 2703.8C2737.2 2706.2 2734.2 2706.8 2732.4 2703.8C2728.2 2697.8 2728.2 2688.8 2714.4 2673.2C2706.6 2664.2 2698.8 2661.2 2705.4 2655.2C2721.6 2641.4 2727.6 2620.4 2730.6 2614.4C2731.8 2612 2734.8 2612 2736.6 2613.8C2738.4 2616.2 2739.6 2618.6 2740.2 2621.6C2748 2641.4 2759.4 2650.4 2763.6 2654.6C2765.4 2656.4 2766.6 2660 2764.8 2662.4Z" fill="#FFE8D7"/>
<path d="M984 2331.8C979.2 2337.2 969.6 2344.4 960.6 2367.2C960 2369 958.8 2371.4 958.2 2373.2C956.4 2375.6 953.4 2376.2 951.6 2373.2C947.4 2367.2 947.4 2358.2 933.6 2342.6C925.8 2333.6 918 2330.6 924.6 2324.6C940.8 2310.8 946.8 2289.8 949.8 2283.8C951 2281.4 954 2281.4 955.8 2283.2C957.6 2285.6 958.8 2288 959.4 2291C967.2 2310.8 978.6 2319.8 982.8 2324C984.6 2325.8 985.8 2330 984 2331.8Z" fill="#FFE8D7"/>
<path d="M2086.8 1472.6C2082 1478 2072.4 1485.2 2063.4 1508C2062.8 1509.8 2061.6 1512.2 2061 1514C2059.2 1516.4 2056.2 1517 2054.4 1514C2050.2 1508 2050.2 1499 2036.4 1483.4C2028.6 1474.4 2020.8 1471.4 2027.4 1465.4C2043.6 1451.6 2049.6 1430.6 2052.6 1424.6C2053.8 1422.2 2056.8 1422.2 2058.6 1424C2060.4 1426.4 2061.6 1428.8 2062.2 1431.8C2070 1451.6 2081.4 1460.6 2085.6 1464.8C2087.4 1466.6 2088.6 1470.8 2086.8 1472.6Z" fill="#FFE8D7"/>
<path fill-rule="evenodd" clip-rule="evenodd" d="M2826.6 1262.81C2773.2 1234.61 2646.6 1276.01 2637 1272.41C2621.4 1267.01 2646 1234.61 2660.4 1219.61C2658 1216.61 2634.6 1211.81 2626.8 1231.01C2623.8 1225.61 2613.6 1222.01 2608.2 1222.01C2617.8 1204.01 2599.8 1189.61 2596.2 1189.61C2593.8 1210.61 2583 1248.41 2568.6 1240.01C2560.2 1235.21 2512.2 1111.01 2457 1087.01C2427 1066.61 2308.2 1090.61 2286 1099.01C2348.4 1107.41 2382 1152.41 2367.6 1182.41C2412.6 1174.61 2443.8 1225.01 2430.6 1253.21C2463 1250.21 2489.4 1252.01 2509.8 1288.01C2530.8 1324.01 2543.4 1379.21 2543.4 1379.21C2543.4 1379.21 2584.2 1358.21 2614.2 1350.41C2644.2 1342.61 2698.2 1343.21 2714.4 1388.81C2728.2 1360.61 2777.4 1348.61 2809.2 1393.01C2825.4 1358.81 2881.8 1361.21 2925.6 1403.81C2916.6 1376.21 2861.4 1273.01 2826.6 1262.81Z" fill="url(#paint10_linear_4_3)"/>
<path fill-rule="evenodd" clip-rule="evenodd" d="M1506.6 1421C1473 1435.4 1444.2 1511 1439.4 1514C1431 1519.4 1425 1495.4 1423.2 1482.8C1420.8 1482.8 1410 1492.4 1416 1503.2C1412.4 1502.6 1407 1506.2 1404.6 1508.6C1399.8 1497.2 1386 1500.2 1384.8 1502C1393.8 1511 1407.6 1530.8 1398 1533.8C1392.6 1536.2 1315.8 1511 1283.4 1528.4C1262.4 1535 1228.8 1599.8 1224 1613.6C1251.6 1587.2 1285.8 1589 1294.2 1607C1307.4 1583 1343.4 1587.2 1351.8 1604.6C1362.6 1588.4 1373.4 1576.4 1398 1580.6C1422.6 1584.2 1453.8 1599.2 1453.8 1599.2C1453.8 1599.2 1459.2 1572.2 1467 1554.8C1474.8 1537.4 1495.8 1512.8 1523.4 1522.4C1515 1505 1528.2 1477.4 1561.2 1479.2C1551 1458.8 1573.8 1433 1610.4 1428.2C1594.2 1421.6 1524.6 1408.4 1506.6 1421Z" fill="url(#paint11_linear_4_3)"/>
<path fill-rule="evenodd" clip-rule="evenodd" d="M3112.2 1461.8C3078.6 1476.2 3049.8 1551.8 3045 1554.8C3036.6 1560.2 3030.6 1536.2 3028.8 1523.6C3026.4 1523.6 3015.6 1533.2 3021.6 1544C3018 1543.4 3012.6 1547 3010.2 1549.4C3005.4 1538 2991.6 1541 2990.4 1542.8C2999.4 1551.8 3013.2 1571.6 3003.6 1574.6C2998.2 1577 2921.4 1551.8 2889 1569.2C2868 1575.8 2834.4 1640.6 2829.6 1654.4C2857.2 1628 2891.4 1629.8 2899.8 1647.8C2913 1623.8 2949 1628 2957.4 1645.4C2968.2 1629.2 2979 1617.2 3003.6 1621.4C3028.2 1625 3059.4 1640 3059.4 1640C3059.4 1640 3064.8 1613 3072.6 1595.6C3080.4 1578.2 3101.4 1553.6 3129 1563.2C3120.6 1545.8 3133.8 1518.2 3166.8 1520C3156.6 1499.6 3179.4 1473.8 3216 1469C3199.8 1462.4 3130.2 1449.2 3112.2 1461.8Z" fill="url(#paint12_linear_4_3)"/>
<path d="M1916.4 3068.4C1781.4 2996.4 1683.6 2852.4 1665 2697C1648.8 2562.6 1692 2420.4 1821 2310.6C1770.6 2323.2 1718.4 2346 1666.8 2380.8C1654.8 2389.8 1643.4 2398.8 1632.6 2407.8C1503 2518.2 1459.8 2660.4 1476 2795.4C1494.6 2950.2 1591.8 3095.4 1727.4 3166.8C1807.8 3209.4 1902.6 3226.2 2002.2 3204C2055.6 3192 2110.2 3168.6 2164.8 3132C2177.4 3123 2189.4 3113.4 2200.8 3103.2C2197.8 3103.8 2194.8 3104.4 2191.8 3105.6C2091.6 3127.8 1997.4 3111 1916.4 3068.4Z" fill="url(#paint13_linear_4_3)"/>
<path d="M2451 2766C2396.4 2801.4 2342.4 2824.2 2289 2836.8C2286 2837.4 2282.4 2838 2279.4 2839.2C2174.4 2862 2074.8 2844.6 1989 2800.8C1869.6 2740.2 1779 2627.4 1740 2500.2C1731 2545.2 1729.2 2590.8 1734.6 2636.4C1753.8 2789.4 1851.6 2931.6 1988.4 3002.4C2070.6 3045 2166 3061.2 2265.6 3039C2268.6 3038.4 2271.6 3037.8 2274.6 3036.6C2325.6 3024 2377.8 3002.4 2429.4 2968.2C2521.8 2903.4 2578.2 2823.6 2605.8 2740.2C2625.6 2680.8 2629.8 2619 2622.6 2559C2592.6 2635.2 2536.8 2706.6 2451 2766Z" fill="url(#paint14_linear_4_3)"/>
<path d="M2503.8 1947.6C2471.4 1917 2433.6 1890 2394 1869.6C2485.2 1991.4 2524.2 2152.2 2474.4 2300.4C2471.4 2310.6 2467.2 2320.2 2463 2330.4C2430.6 2407.8 2373.6 2480.4 2286 2541.6C2230.2 2577.6 2175 2601 2120.4 2613.6C2117.4 2614.2 2113.8 2614.8 2110.8 2616C2023.8 2635.2 1940.4 2626.8 1865.4 2599.8C1901.4 2635.8 1943.4 2666.4 1990.2 2689.8C2076 2732.4 2176.2 2749.8 2281.8 2727C2284.8 2726.4 2288.4 2725.8 2291.4 2724.6C2344.8 2712 2399.4 2689.2 2454 2655C2540.4 2596.2 2595.6 2526 2628 2451.6C2632.2 2442.6 2635.8 2432.4 2638.8 2422.8C2695.2 2254.2 2631.6 2068.2 2503.8 1947.6Z" fill="url(#paint15_linear_4_3)"/>
<path d="M2326.8 1871.4C2310.6 1850.4 2292.6 1829.4 2272.8 1811.4C2149.8 1696.2 1967.4 1642.2 1777.8 1725C1900.8 1722.6 2013 1773.6 2097 1854.6C2116.8 1873.8 2134.8 1894.2 2151 1916.4C2240.4 2035.2 2277.6 2191.8 2229.6 2337.6C2226.6 2347.2 2222.4 2356.8 2218.8 2366.4C2187 2441.4 2131.8 2512.8 2046 2572.2C2038.2 2577 2030.4 2581.8 2023.2 2586.6C2032.2 2585.4 2042.4 2583.6 2052 2581.8C2055 2581.2 2058.6 2580.6 2061.6 2579.4C2114.4 2566.8 2168.4 2545.2 2222.4 2511C2307.6 2452.8 2363.4 2383.8 2394 2310C2398.2 2301 2401.8 2291.4 2404.8 2281.8C2453.4 2139.6 2415.6 1987.2 2326.8 1871.4Z" fill="url(#paint16_linear_4_3)"/>
<path d="M1988.4 2044.46C1988.4 2044.46 1963.2 2154.26 2121.6 2189.06C2121.6 2189.06 2140.8 2309.66 2074.8 2375.06C2074.8 2375.06 2077.8 2211.86 1762.8 2210.06C1447.8 2208.26 1252.2 2582.06 1450.8 2915.66C1450.8 2915.66 1253.4 2883.86 1212.6 2550.86C1171.8 2217.86 1481.4 2091.86 1481.4 2091.86C1481.4 2091.86 1273.8 2118.86 1158 2352.86C1158 2352.86 1197 1960.46 1629 1939.46C1629 1939.46 1500.6 1903.46 1266.6 1967.06C1266.6 1967.06 1468.8 1709.66 1816.2 1833.86C1816.2 1833.86 2026.8 1925.06 2094.6 2082.86C2094.6 2082.86 2017.8 2015.06 1988.4 2044.46Z" fill="url(#paint17_linear_4_3)"/>
<path opacity="0.54" d="M1516.2 3232.4C1502.4 3230.6 945.6 3174.8 936.6 2978C927.6 2781.2 1205.4 2766.8 1219.2 2661.2C1233 2555.6 690.6 2541.2 769.2 2272.4C847.8 2003.6 1084.8 2061.2 1195.8 1941.2C1307.4 1821.2 978 1408.4 1135.8 1283.6C1293.6 1158.8 1641 1283.6 1757.4 1331.6C1873.2 1379.6 2044.8 1422.8 2086.8 1317.2C2128.8 1211.6 1836 1259.6 1836 1144.4C1836 1029.2 2053.8 976.4 2053.8 976.4C2053.8 976.4 1873.2 1053.2 1942.2 1106C2011.8 1158.8 2378.4 1101.2 2499 1254.8C2619.6 1408.4 2392.2 1475.6 2443.2 1605.2C2494.2 1734.8 3134.4 1874 3148.2 2099.6C3162 2325.2 2665.8 2411.6 2726.4 2570C2786.4 2728.4 3083.4 2766.8 3032.4 3002C2981.4 3237.2 2308.8 3333.2 1516.2 3232.4Z" fill="url(#paint18_linear_4_3)"/>
<path d="M1954.8 3435.8C2476.05 3435.8 2898.6 3013.25 2898.6 2492C2898.6 1970.75 2476.05 1548.2 1954.8 1548.2C1433.55 1548.2 1011 1970.75 1011 2492C1011 3013.25 1433.55 3435.8 1954.8 3435.8Z" fill="url(#paint19_linear_4_3)"/>
<path opacity="0.2" d="M1648.8 1772.6C1595.4 1766.6 1539 1789.4 1497.6 1823C1467 1848.2 1444.2 1890.8 1456.8 1928.6C1459.8 1941.2 1466.4 1953.2 1476.6 1963.4C1547.4 2033.6 1701 1968.2 1729.2 1883C1748.4 1826 1702.8 1778.6 1648.8 1772.6Z" fill="url(#paint20_linear_4_3)"/>
<path opacity="0.2" d="M2020.8 1668.8C1998 1643.6 1959 1632.8 1920 1634.6C1914 1632.8 1908 1632.2 1900.8 1633.4C1859.4 1640 1798.8 1662.2 1784.4 1707.2C1769.4 1755.2 1814.4 1786.4 1855.8 1793C1897.2 1800.2 1940.4 1792.4 1977 1772C2012.4 1752.2 2057.4 1709.6 2020.8 1668.8Z" fill="url(#paint21_linear_4_3)"/>
<path opacity="0.2" d="M1908 1871.6C1905 1850 1889.4 1833.2 1867.8 1829C1864.2 1828.4 1860.6 1827.8 1856.4 1827.8C1852.2 1826.6 1848 1826 1843.8 1826C1835.4 1826 1824.6 1828.4 1817.4 1832.6C1799.4 1843.4 1788.6 1862 1791.6 1883C1797 1924.4 1843.8 1944.8 1879.8 1923.2C1897.8 1913 1911 1893.8 1908 1871.6Z" fill="url(#paint22_linear_4_3)"/>
<path opacity="0.2" d="M2584.8 1887.2C2523 1871 2458.2 1883.6 2400.6 1908.8C2349.6 1931 2282.4 1967.6 2264.4 2024.6C2263.8 2027 2263.2 2029.4 2262.6 2031.8C2254.2 2050.4 2250.6 2070.2 2253.6 2090C2263.2 2151.8 2337.6 2173.4 2391 2180C2452.8 2187.8 2516.4 2174.6 2569.8 2142.2C2617.2 2113.4 2668.8 2064.2 2679 2007.8C2690.4 1945.4 2640 1901.6 2584.8 1887.2Z" fill="url(#paint23_linear_4_3)"/>
<path opacity="0.2" d="M2074.8 2102.6C2051.4 2096 2029.2 2094.2 2006.4 2104.4C1985.4 2114 1971.6 2136.2 1972.2 2159.6C1972.8 2183 1987.8 2202.8 2010 2209.4C2012.4 2210.6 2015.4 2211.8 2018.4 2212.4C2039.4 2218.4 2064.6 2211.8 2080.2 2196.2C2095.8 2180.6 2101.2 2160.8 2103.6 2139.2C2105.4 2123.6 2089.8 2106.8 2074.8 2102.6Z" fill="url(#paint24_linear_4_3)"/>
<path opacity="0.2" d="M1539 2196.2C1504.2 2176.4 1458.6 2176.4 1420.2 2180C1414.8 2180.6 1410 2181.2 1404.6 2181.8C1401.6 2181.2 1398.6 2181.2 1395.6 2181.2C1345.8 2182.4 1300.2 2202.8 1257 2226.8C1219.8 2247.2 1187.4 2277.2 1180.2 2321C1163.4 2424.8 1296 2447.6 1371.6 2438C1446.6 2428.4 1553.4 2384.6 1578.6 2305.4C1591.8 2264 1577.4 2217.8 1539 2196.2Z" fill="url(#paint25_linear_4_3)"/>
<path d="M2659.8 2726C2655.6 2730.8 2647.2 2736.8 2639.4 2756.6C2638.8 2758.4 2638.2 2760.2 2637 2762C2635.8 2764.4 2632.8 2764.4 2631.6 2762C2628 2757.2 2628 2748.8 2616 2735.6C2609.4 2727.8 2602.2 2724.8 2608.2 2720C2622.6 2708 2627.4 2689.4 2629.8 2684.6C2631 2682.8 2633.4 2682.2 2635.2 2684C2637 2685.8 2637.6 2688.2 2638.8 2690.6C2646 2707.4 2655.6 2715.2 2659.2 2719.4C2659.8 2720.6 2661 2724.2 2659.8 2726Z" fill="#FFE8D7"/>
<path d="M2173.2 1505.6C2170.2 1508.6 2164.8 1512.8 2159.4 1526.6C2158.8 1527.8 2158.2 1529 2157.6 1530.2C2157 1532 2154.6 1532 2154 1530.2C2151.6 1526.6 2151.6 1521.8 2143.8 1512.2C2139 1506.8 2134.8 1505 2138.4 1502C2148 1493.6 2151.6 1481.6 2152.8 1478.6C2153.4 1477.4 2155.2 1476.8 2156.4 1478.6C2157.6 1479.8 2158.2 1481.6 2158.8 1482.8C2163.6 1494.2 2170.2 1499.6 2172.6 1502C2173.2 1502 2173.8 1504.4 2173.2 1505.6Z" fill="#FFE8D7"/>
<path d="M2725.8 2787.2C2722.8 2790.2 2717.4 2794.4 2712 2808.2C2711.4 2809.4 2710.8 2810.6 2710.2 2811.8C2709.6 2813.6 2707.2 2813.6 2706.6 2811.8C2704.2 2808.2 2704.2 2803.4 2696.4 2793.8C2691.6 2788.4 2687.4 2786.6 2691 2783.6C2700.6 2775.2 2704.2 2763.2 2705.4 2760.2C2706 2759 2707.8 2758.4 2709 2760.2C2710.2 2761.4 2710.8 2763.2 2711.4 2764.4C2716.2 2775.8 2722.8 2781.2 2725.2 2783.6C2726.4 2784.2 2727 2786.6 2725.8 2787.2Z" fill="#FFE8D7"/>
<path d="M2899.8 2072C2896.8 2075 2891.4 2079.2 2886 2093C2885.4 2094.2 2884.8 2095.4 2884.2 2096.6C2883.6 2098.4 2881.2 2098.4 2880.6 2096.6C2878.2 2093 2878.2 2088.2 2870.4 2078.6C2865.6 2073.2 2861.4 2071.4 2865 2068.4C2874.6 2060 2878.2 2048 2879.4 2045C2880 2043.8 2881.8 2043.2 2883 2045C2884.2 2046.2 2884.8 2048 2885.4 2049.2C2890.2 2060.6 2896.8 2066 2899.2 2068.4C2899.8 2068.4 2901 2070.8 2899.8 2072Z" fill="#FFE8D7"/>
<path d="M2764.8 2662.4C2760 2667.8 2750.4 2675 2741.4 2697.8C2740.8 2699.6 2739.6 2702 2739 2703.8C2737.2 2706.2 2734.2 2706.8 2732.4 2703.8C2728.2 2697.8 2728.2 2688.8 2714.4 2673.2C2706.6 2664.2 2698.8 2661.2 2705.4 2655.2C2721.6 2641.4 2727.6 2620.4 2730.6 2614.4C2731.8 2612 2734.8 2612 2736.6 2613.8C2738.4 2616.2 2739.6 2618.6 2740.2 2621.6C2748 2641.4 2759.4 2650.4 2763.6 2654.6C2765.4 2656.4 2766.6 2660 2764.8 2662.4Z" fill="#FFE8D7"/>
<path d="M984 2331.8C979.2 2337.2 969.6 2344.4 960.6 2367.2C960 2369 958.8 2371.4 958.2 2373.2C956.4 2375.6 953.4 2376.2 951.6 2373.2C947.4 2367.2 947.4 2358.2 933.6 2342.6C925.8 2333.6 918 2330.6 924.6 2324.6C940.8 2310.8 946.8 2289.8 949.8 2283.8C951 2281.4 954 2281.4 955.8 2283.2C957.6 2285.6 958.8 2288 959.4 2291C967.2 2310.8 978.6 2319.8 982.8 2324C984.6 2325.8 985.8 2330 984 2331.8Z" fill="#FFE8D7"/>
<path d="M2086.8 1472.6C2082 1478 2072.4 1485.2 2063.4 1508C2062.8 1509.8 2061.6 1512.2 2061 1514C2059.2 1516.4 2056.2 1517 2054.4 1514C2050.2 1508 2050.2 1499 2036.4 1483.4C2028.6 1474.4 2020.8 1471.4 2027.4 1465.4C2043.6 1451.6 2049.6 1430.6 2052.6 1424.6C2053.8 1422.2 2056.8 1422.2 2058.6 1424C2060.4 1426.4 2061.6 1428.8 2062.2 1431.8C2070 1451.6 2081.4 1460.6 2085.6 1464.8C2087.4 1466.6 2088.6 1470.8 2086.8 1472.6Z" fill="#FFE8D7"/>
<path fill-rule="evenodd" clip-rule="evenodd" d="M2826.6 1262.81C2773.2 1234.61 2646.6 1276.01 2637 1272.41C2621.4 1267.01 2646 1234.61 2660.4 1219.61C2658 1216.61 2634.6 1211.81 2626.8 1231.01C2623.8 1225.61 2613.6 1222.01 2608.2 1222.01C2617.8 1204.01 2599.8 1189.61 2596.2 1189.61C2593.8 1210.61 2583 1248.41 2568.6 1240.01C2560.2 1235.21 2512.2 1111.01 2457 1087.01C2427 1066.61 2308.2 1090.61 2286 1099.01C2348.4 1107.41 2382 1152.41 2367.6 1182.41C2412.6 1174.61 2443.8 1225.01 2430.6 1253.21C2463 1250.21 2489.4 1252.01 2509.8 1288.01C2530.8 1324.01 2543.4 1379.21 2543.4 1379.21C2543.4 1379.21 2584.2 1358.21 2614.2 1350.41C2644.2 1342.61 2698.2 1343.21 2714.4 1388.81C2728.2 1360.61 2777.4 1348.61 2809.2 1393.01C2825.4 1358.81 2881.8 1361.21 2925.6 1403.81C2916.6 1376.21 2861.4 1273.01 2826.6 1262.81Z" fill="url(#paint26_linear_4_3)"/>
<path fill-rule="evenodd" clip-rule="evenodd" d="M1506.6 1421C1473 1435.4 1444.2 1511 1439.4 1514C1431 1519.4 1425 1495.4 1423.2 1482.8C1420.8 1482.8 1410 1492.4 1416 1503.2C1412.4 1502.6 1407 1506.2 1404.6 1508.6C1399.8 1497.2 1386 1500.2 1384.8 1502C1393.8 1511 1407.6 1530.8 1398 1533.8C1392.6 1536.2 1315.8 1511 1283.4 1528.4C1262.4 1535 1228.8 1599.8 1224 1613.6C1251.6 1587.2 1285.8 1589 1294.2 1607C1307.4 1583 1343.4 1587.2 1351.8 1604.6C1362.6 1588.4 1373.4 1576.4 1398 1580.6C1422.6 1584.2 1453.8 1599.2 1453.8 1599.2C1453.8 1599.2 1459.2 1572.2 1467 1554.8C1474.8 1537.4 1495.8 1512.8 1523.4 1522.4C1515 1505 1528.2 1477.4 1561.2 1479.2C1551 1458.8 1573.8 1433 1610.4 1428.2C1594.2 1421.6 1524.6 1408.4 1506.6 1421Z" fill="url(#paint27_linear_4_3)"/>
<path fill-rule="evenodd" clip-rule="evenodd" d="M3112.2 1461.8C3078.6 1476.2 3049.8 1551.8 3045 1554.8C3036.6 1560.2 3030.6 1536.2 3028.8 1523.6C3026.4 1523.6 3015.6 1533.2 3021.6 1544C3018 1543.4 3012.6 1547 3010.2 1549.4C3005.4 1538 2991.6 1541 2990.4 1542.8C2999.4 1551.8 3013.2 1571.6 3003.6 1574.6C2998.2 1577 2921.4 1551.8 2889 1569.2C2868 1575.8 2834.4 1640.6 2829.6 1654.4C2857.2 1628 2891.4 1629.8 2899.8 1647.8C2913 1623.8 2949 1628 2957.4 1645.4C2968.2 1629.2 2979 1617.2 3003.6 1621.4C3028.2 1625 3059.4 1640 3059.4 1640C3059.4 1640 3064.8 1613 3072.6 1595.6C3080.4 1578.2 3101.4 1553.6 3129 1563.2C3120.6 1545.8 3133.8 1518.2 3166.8 1520C3156.6 1499.6 3179.4 1473.8 3216 1469C3199.8 1462.4 3130.2 1449.2 3112.2 1461.8Z" fill="url(#paint28_linear_4_3)"/>
<path d="M1916.4 3068.4C1781.4 2996.4 1683.6 2852.4 1665 2697C1648.8 2562.6 1692 2420.4 1821 2310.6C1770.6 2323.2 1718.4 2346 1666.8 2380.8C1654.8 2389.8 1643.4 2398.8 1632.6 2407.8C1503 2518.2 1459.8 2660.4 1476 2795.4C1494.6 2950.2 1591.8 3095.4 1727.4 3166.8C1807.8 3209.4 1902.6 3226.2 2002.2 3204C2055.6 3192 2110.2 3168.6 2164.8 3132C2177.4 3123 2189.4 3113.4 2200.8 3103.2C2197.8 3103.8 2194.8 3104.4 2191.8 3105.6C2091.6 3127.8 1997.4 3111 1916.4 3068.4Z" fill="url(#paint29_linear_4_3)"/>
<path d="M2451 2766C2396.4 2801.4 2342.4 2824.2 2289 2836.8C2286 2837.4 2282.4 2838 2279.4 2839.2C2174.4 2862 2074.8 2844.6 1989 2800.8C1869.6 2740.2 1779 2627.4 1740 2500.2C1731 2545.2 1729.2 2590.8 1734.6 2636.4C1753.8 2789.4 1851.6 2931.6 1988.4 3002.4C2070.6 3045 2166 3061.2 2265.6 3039C2268.6 3038.4 2271.6 3037.8 2274.6 3036.6C2325.6 3024 2377.8 3002.4 2429.4 2968.2C2521.8 2903.4 2578.2 2823.6 2605.8 2740.2C2625.6 2680.8 2629.8 2619 2622.6 2559C2592.6 2635.2 2536.8 2706.6 2451 2766Z" fill="url(#paint30_linear_4_3)"/>
<path d="M2503.8 1947.6C2471.4 1917 2433.6 1890 2394 1869.6C2485.2 1991.4 2524.2 2152.2 2474.4 2300.4C2471.4 2310.6 2467.2 2320.2 2463 2330.4C2430.6 2407.8 2373.6 2480.4 2286 2541.6C2230.2 2577.6 2175 2601 2120.4 2613.6C2117.4 2614.2 2113.8 2614.8 2110.8 2616C2023.8 2635.2 1940.4 2626.8 1865.4 2599.8C1901.4 2635.8 1943.4 2666.4 1990.2 2689.8C2076 2732.4 2176.2 2749.8 2281.8 2727C2284.8 2726.4 2288.4 2725.8 2291.4 2724.6C2344.8 2712 2399.4 2689.2 2454 2655C2540.4 2596.2 2595.6 2526 2628 2451.6C2632.2 2442.6 2635.8 2432.4 2638.8 2422.8C2695.2 2254.2 2631.6 2068.2 2503.8 1947.6Z" fill="url(#paint31_linear_4_3)"/>
<path d="M2326.8 1871.4C2310.6 1850.4 2292.6 1829.4 2272.8 1811.4C2149.8 1696.2 1967.4 1642.2 1777.8 1725C1900.8 1722.6 2013 1773.6 2097 1854.6C2116.8 1873.8 2134.8 1894.2 2151 1916.4C2240.4 2035.2 2277.6 2191.8 2229.6 2337.6C2226.6 2347.2 2222.4 2356.8 2218.8 2366.4C2187 2441.4 2131.8 2512.8 2046 2572.2C2038.2 2577 2030.4 2581.8 2023.2 2586.6C2032.2 2585.4 2042.4 2583.6 2052 2581.8C2055 2581.2 2058.6 2580.6 2061.6 2579.4C2114.4 2566.8 2168.4 2545.2 2222.4 2511C2307.6 2452.8 2363.4 2383.8 2394 2310C2398.2 2301 2401.8 2291.4 2404.8 2281.8C2453.4 2139.6 2415.6 1987.2 2326.8 1871.4Z" fill="url(#paint32_linear_4_3)"/>
<path d="M1988.4 2044.46C1988.4 2044.46 1963.2 2154.26 2121.6 2189.06C2121.6 2189.06 2140.8 2309.66 2074.8 2375.06C2074.8 2375.06 2077.8 2211.86 1762.8 2210.06C1447.8 2208.26 1252.2 2582.06 1450.8 2915.66C1450.8 2915.66 1253.4 2883.86 1212.6 2550.86C1171.8 2217.86 1481.4 2091.86 1481.4 2091.86C1481.4 2091.86 1273.8 2118.86 1158 2352.86C1158 2352.86 1197 1960.46 1629 1939.46C1629 1939.46 1500.6 1903.46 1266.6 1967.06C1266.6 1967.06 1468.8 1709.66 1816.2 1833.86C1816.2 1833.86 2026.8 1925.06 2094.6 2082.86C2094.6 2082.86 2017.8 2015.06 1988.4 2044.46Z" fill="url(#paint33_linear_4_3)"/>
<path d="M8682.24 1566C8685.65 1566 8688.21 1566.96 8689.92 1568.88C8691.63 1570.59 8693.12 1573.25 8694.4 1576.88L8772.8 1779.12C8773.01 1779.76 8773.12 1780.51 8773.12 1781.36C8773.12 1783.71 8772.27 1785.73 8770.56 1787.44C8768.85 1789.15 8766.83 1790 8764.48 1790H8741.44C8737.17 1790 8734.19 1789.15 8732.48 1787.44C8730.77 1785.52 8729.6 1783.71 8728.96 1782L8715.2 1746.48H8614.08L8600.32 1782C8599.68 1783.71 8598.51 1785.52 8596.8 1787.44C8595.09 1789.15 8592.11 1790 8587.84 1790H8564.8C8562.45 1790 8560.43 1789.15 8558.72 1787.44C8557.01 1785.73 8556.16 1783.71 8556.16 1781.36C8556.16 1780.51 8556.27 1779.76 8556.48 1779.12L8634.88 1576.88C8636.16 1573.25 8637.65 1570.59 8639.36 1568.88C8641.07 1566.96 8643.63 1566 8647.04 1566H8682.24ZM8699.84 1706.48L8664.64 1615.28L8629.44 1706.48H8699.84ZM8951.07 1750C8953.42 1750 8955.45 1750.85 8957.15 1752.56C8958.86 1754.27 8959.71 1756.29 8959.71 1758.64V1781.36C8959.71 1783.71 8958.86 1785.73 8957.15 1787.44C8955.45 1789.15 8953.42 1790 8951.07 1790H8810.91C8808.57 1790 8806.54 1789.15 8804.83 1787.44C8803.13 1785.73 8802.27 1783.71 8802.27 1781.36V1574.64C8802.27 1572.29 8803.13 1570.27 8804.83 1568.56C8806.54 1566.85 8808.57 1566 8810.91 1566H8836.83C8839.18 1566 8841.21 1566.85 8842.91 1568.56C8844.62 1570.27 8845.47 1572.29 8845.47 1574.64V1750H8951.07ZM9135.68 1566C9138.02 1566 9140.05 1566.85 9141.76 1568.56C9143.46 1570.27 9144.32 1572.29 9144.32 1574.64V1597.36C9144.32 1599.71 9143.46 1601.73 9141.76 1603.44C9140.05 1605.15 9138.02 1606 9135.68 1606H9033.6V1668.08H9129.28C9131.62 1668.08 9133.65 1668.93 9135.36 1670.64C9137.06 1672.35 9137.92 1674.37 9137.92 1676.72V1699.44C9137.92 1701.79 9137.06 1703.81 9135.36 1705.52C9133.65 1707.23 9131.62 1708.08 9129.28 1708.08H9033.6V1781.36C9033.6 1783.71 9032.74 1785.73 9031.04 1787.44C9029.33 1789.15 9027.3 1790 9024.96 1790H8999.04C8996.69 1790 8994.66 1789.15 8992.96 1787.44C8991.25 1785.73 8990.4 1783.71 8990.4 1781.36V1574.64C8990.4 1572.29 8991.25 1570.27 8992.96 1568.56C8994.66 1566.85 8996.69 1566 8999.04 1566H9135.68ZM9273.49 1566C9276.9 1566 9279.46 1566.96 9281.17 1568.88C9282.88 1570.59 9284.37 1573.25 9285.65 1576.88L9364.05 1779.12C9364.26 1779.76 9364.37 1780.51 9364.37 1781.36C9364.37 1783.71 9363.52 1785.73 9361.81 1787.44C9360.1 1789.15 9358.08 1790 9355.73 1790H9332.69C9328.42 1790 9325.44 1789.15 9323.73 1787.44C9322.02 1785.52 9320.85 1783.71 9320.21 1782L9306.45 1746.48H9205.33L9191.57 1782C9190.93 1783.71 9189.76 1785.52 9188.05 1787.44C9186.34 1789.15 9183.36 1790 9179.09 1790H9156.05C9153.7 1790 9151.68 1789.15 9149.97 1787.44C9148.26 1785.73 9147.41 1783.71 9147.41 1781.36C9147.41 1780.51 9147.52 1779.76 9147.73 1779.12L9226.13 1576.88C9227.41 1573.25 9228.9 1570.59 9230.61 1568.88C9232.32 1566.96 9234.88 1566 9238.29 1566H9273.49ZM9291.09 1706.48L9255.89 1615.28L9220.69 1706.48H9291.09ZM9530.43 1726.64L9584.19 1574C9584.83 1572.29 9585.89 1570.59 9587.39 1568.88C9589.09 1566.96 9591.55 1566 9594.75 1566H9619.07C9621.41 1566 9623.44 1566.85 9625.15 1568.56C9626.85 1570.27 9627.71 1572.29 9627.71 1574.64C9627.71 1575.07 9627.71 1575.49 9627.71 1575.92C9627.71 1576.13 9627.49 1576.77 9627.07 1577.84L9555.39 1779.12C9554.11 1782.75 9552.61 1785.52 9550.91 1787.44C9549.2 1789.15 9546.64 1790 9543.23 1790H9517.63C9514.21 1790 9511.65 1789.15 9509.95 1787.44C9508.24 1785.52 9506.75 1782.75 9505.47 1779.12L9433.79 1577.84C9433.36 1576.77 9433.15 1576.13 9433.15 1575.92C9433.15 1575.49 9433.15 1575.07 9433.15 1574.64C9433.15 1572.29 9434 1570.27 9435.71 1568.56C9437.41 1566.85 9439.44 1566 9441.79 1566H9466.11C9469.31 1566 9471.65 1566.96 9473.15 1568.88C9474.85 1570.59 9476.03 1572.29 9476.67 1574L9530.43 1726.64ZM9891.15 1649.52C9891.36 1653.57 9891.47 1658.05 9891.47 1662.96C9891.47 1667.87 9891.47 1672.88 9891.47 1678C9891.47 1683.12 9891.47 1688.13 9891.47 1693.04C9891.47 1697.95 9891.36 1702.43 9891.15 1706.48C9890.51 1718.85 9888.59 1730.37 9885.39 1741.04C9882.4 1751.49 9877.5 1760.67 9870.67 1768.56C9864.06 1776.24 9855.31 1782.32 9844.43 1786.8C9833.76 1791.07 9820.64 1793.2 9805.07 1793.2C9789.28 1793.2 9776.06 1791.07 9765.39 1786.8C9754.72 1782.32 9745.98 1776.24 9739.15 1768.56C9732.54 1760.67 9727.63 1751.49 9724.43 1741.04C9721.44 1730.37 9719.63 1718.85 9718.99 1706.48C9718.56 1698.37 9718.35 1689.2 9718.35 1678.96C9718.35 1668.51 9718.56 1659.23 9718.99 1651.12C9719.63 1638.75 9721.44 1627.23 9724.43 1616.56C9727.63 1605.68 9732.54 1596.29 9739.15 1588.4C9745.98 1580.51 9754.72 1574.32 9765.39 1569.84C9776.06 1565.15 9789.28 1562.8 9805.07 1562.8C9820.64 1562.8 9833.76 1565.04 9844.43 1569.52C9855.31 1573.79 9864.06 1579.87 9870.67 1587.76C9877.5 1595.44 9882.4 1604.61 9885.39 1615.28C9888.59 1625.73 9890.51 1637.15 9891.15 1649.52ZM9762.19 1704.88C9763.26 1720.24 9766.88 1732.19 9773.07 1740.72C9779.47 1749.04 9790.14 1753.2 9805.07 1753.2C9820 1753.2 9830.56 1749.04 9836.75 1740.72C9843.15 1732.19 9846.88 1720.24 9847.95 1704.88C9848.38 1696.77 9848.59 1687.81 9848.59 1678C9848.59 1668.19 9848.38 1659.23 9847.95 1651.12C9846.88 1635.76 9843.15 1623.92 9836.75 1615.6C9830.56 1607.07 9820 1602.8 9805.07 1602.8C9790.14 1602.8 9779.47 1607.07 9773.07 1615.6C9766.88 1623.92 9763.26 1635.76 9762.19 1651.12C9761.76 1659.23 9761.55 1668.19 9761.55 1678C9761.55 1687.81 9761.76 1696.77 9762.19 1704.88ZM9962.08 1741.36C9964.42 1741.36 9966.45 1742.21 9968.16 1743.92C9969.86 1745.63 9970.72 1747.65 9970.72 1750V1781.36C9970.72 1783.71 9969.86 1785.73 9968.16 1787.44C9966.45 1789.15 9964.42 1790 9962.08 1790H9932.32C9929.97 1790 9927.94 1789.15 9926.24 1787.44C9924.53 1785.73 9923.68 1783.71 9923.68 1781.36V1750C9923.68 1747.65 9924.53 1745.63 9926.24 1743.92C9927.94 1742.21 9929.97 1741.36 9932.32 1741.36H9962.08ZM10175.2 1649.52C10175.4 1653.57 10175.5 1658.05 10175.5 1662.96C10175.5 1667.87 10175.5 1672.88 10175.5 1678C10175.5 1683.12 10175.5 1688.13 10175.5 1693.04C10175.5 1697.95 10175.4 1702.43 10175.2 1706.48C10174.6 1718.85 10172.7 1730.37 10169.5 1741.04C10166.5 1751.49 10161.6 1760.67 10154.7 1768.56C10148.1 1776.24 10139.4 1782.32 10128.5 1786.8C10117.8 1791.07 10104.7 1793.2 10089.1 1793.2C10073.3 1793.2 10060.1 1791.07 10049.5 1786.8C10038.8 1782.32 10030 1776.24 10023.2 1768.56C10016.6 1760.67 10011.7 1751.49 10008.5 1741.04C10005.5 1730.37 10003.7 1718.85 10003.1 1706.48C10002.6 1698.37 10002.4 1689.2 10002.4 1678.96C10002.4 1668.51 10002.6 1659.23 10003.1 1651.12C10003.7 1638.75 10005.5 1627.23 10008.5 1616.56C10011.7 1605.68 10016.6 1596.29 10023.2 1588.4C10030 1580.51 10038.8 1574.32 10049.5 1569.84C10060.1 1565.15 10073.3 1562.8 10089.1 1562.8C10104.7 1562.8 10117.8 1565.04 10128.5 1569.52C10139.4 1573.79 10148.1 1579.87 10154.7 1587.76C10161.6 1595.44 10166.5 1604.61 10169.5 1615.28C10172.7 1625.73 10174.6 1637.15 10175.2 1649.52ZM10046.3 1704.88C10047.3 1720.24 10050.9 1732.19 10057.1 1740.72C10063.5 1749.04 10074.2 1753.2 10089.1 1753.2C10104.1 1753.2 10114.6 1749.04 10120.8 1740.72C10127.2 1732.19 10130.9 1720.24 10132 1704.88C10132.4 1696.77 10132.7 1687.81 10132.7 1678C10132.7 1668.19 10132.4 1659.23 10132 1651.12C10130.9 1635.76 10127.2 1623.92 10120.8 1615.6C10114.6 1607.07 10104.1 1602.8 10089.1 1602.8C10074.2 1602.8 10063.5 1607.07 10057.1 1615.6C10050.9 1623.92 10047.3 1635.76 10046.3 1651.12C10045.8 1659.23 10045.6 1668.19 10045.6 1678C10045.6 1687.81 10045.8 1696.77 10046.3 1704.88ZM10246.1 1741.36C10248.5 1741.36 10250.5 1742.21 10252.2 1743.92C10253.9 1745.63 10254.8 1747.65 10254.8 1750V1781.36C10254.8 1783.71 10253.9 1785.73 10252.2 1787.44C10250.5 1789.15 10248.5 1790 10246.1 1790H10216.4C10214 1790 10212 1789.15 10210.3 1787.44C10208.6 1785.73 10207.7 1783.71 10207.7 1781.36V1750C10207.7 1747.65 10208.6 1745.63 10210.3 1743.92C10212 1742.21 10214 1741.36 10216.4 1741.36H10246.1ZM10259.7 1638.32C10258.2 1636.4 10257.6 1634.27 10257.8 1631.92C10258.2 1629.57 10259.4 1627.65 10261.3 1626.16L10330.7 1571.44C10332.4 1570.16 10334.1 1568.99 10335.8 1567.92C10337.8 1566.64 10339.8 1566 10341.9 1566H10366.9C10369.2 1566 10371.3 1566.85 10373 1568.56C10374.7 1570.27 10375.5 1572.29 10375.5 1574.64V1781.36C10375.5 1783.71 10374.7 1785.73 10373 1787.44C10371.3 1789.15 10369.2 1790 10366.9 1790H10341C10338.6 1790 10336.6 1789.15 10334.9 1787.44C10333.2 1785.73 10332.3 1783.71 10332.3 1781.36V1623.28L10286.9 1658.8C10285 1660.29 10282.8 1660.93 10280.5 1660.72C10278.4 1660.29 10276.4 1659.12 10274.7 1657.2L10259.7 1638.32Z" fill="url(#paint34_linear_4_3)"/>
<defs>
<linearGradient id="paint0_linear_4_3" x1="4829.15" y1="1585" x2="4829.15" y2="1954.26" gradientUnits="userSpaceOnUse">
<stop stop-color="#F87909"/>
<stop offset="1" stop-color="#D3B6ED" stop-opacity="0"/>
</linearGradient>
<linearGradient id="paint1_linear_4_3" x1="6915.5" y1="1855" x2="6915.5" y2="3040" gradientUnits="userSpaceOnUse">
<stop offset="0.0239582" stop-color="#F87909"/>
<stop offset="1" stop-color="#D3B6ED" stop-opacity="0"/>
</linearGradient>
<linearGradient id="paint2_linear_4_3" x1="1973.49" y1="3490.47" x2="1939.89" y2="1167.45" gradientUnits="userSpaceOnUse">
<stop offset="0.0864582" stop-color="#F87909"/>
<stop offset="1" stop-color="#D3B6ED"/>
</linearGradient>
<linearGradient id="paint3_linear_4_3" x1="1955.07" y1="3644.72" x2="1955.07" y2="1613.25" gradientUnits="userSpaceOnUse">
<stop stop-color="#A33AFF"/>
<stop offset="1" stop-color="#E9F0E4"/>
</linearGradient>
<linearGradient id="paint4_linear_4_3" x1="1593.76" y1="1992.71" x2="1593.76" y2="1771.42" gradientUnits="userSpaceOnUse">
<stop stop-color="#A33AFF"/>
<stop offset="1" stop-color="#E9F0E4"/>
</linearGradient>
<linearGradient id="paint5_linear_4_3" x1="1907.8" y1="1795.44" x2="1907.8" y2="1632.45" gradientUnits="userSpaceOnUse">
<stop stop-color="#A33AFF"/>
<stop offset="1" stop-color="#E9F0E4"/>
</linearGradient>
<linearGradient id="paint6_linear_4_3" x1="1850.09" y1="1932.11" x2="1850.09" y2="1825.82" gradientUnits="userSpaceOnUse">
<stop stop-color="#A33AFF"/>
<stop offset="1" stop-color="#E9F0E4"/>
</linearGradient>
<linearGradient id="paint7_linear_4_3" x1="2466.45" y1="2181.88" x2="2466.45" y2="1879.99" gradientUnits="userSpaceOnUse">
<stop stop-color="#A33AFF"/>
<stop offset="1" stop-color="#E9F0E4"/>
</linearGradient>
<linearGradient id="paint8_linear_4_3" x1="2037.94" y1="2215.39" x2="2037.94" y2="2097.31" gradientUnits="userSpaceOnUse">
<stop stop-color="#A33AFF"/>
<stop offset="1" stop-color="#E9F0E4"/>
</linearGradient>
<linearGradient id="paint9_linear_4_3" x1="1380.92" y1="2439.66" x2="1380.92" y2="2178.11" gradientUnits="userSpaceOnUse">
<stop stop-color="#A33AFF"/>
<stop offset="1" stop-color="#E9F0E4"/>
</linearGradient>
<linearGradient id="paint10_linear_4_3" x1="2605.8" y1="1079" x2="2605.8" y2="1403.81" gradientUnits="userSpaceOnUse">
<stop stop-color="#AB5555"/>
<stop offset="1" stop-color="#FF0000" stop-opacity="0"/>
</linearGradient>
<linearGradient id="paint11_linear_4_3" x1="1417.2" y1="1415.75" x2="1417.2" y2="1613.6" gradientUnits="userSpaceOnUse">
<stop offset="0.0708332" stop-color="#AB5555"/>
<stop offset="1" stop-color="#FF0000" stop-opacity="0"/>
</linearGradient>
<linearGradient id="paint12_linear_4_3" x1="3022.8" y1="1456.55" x2="3022.8" y2="1654.4" gradientUnits="userSpaceOnUse">
<stop stop-color="#AB5555"/>
<stop offset="1" stop-color="#FF0000" stop-opacity="0"/>
</linearGradient>
<linearGradient id="paint13_linear_4_3" x1="1836.78" y1="2310.6" x2="1836.78" y2="3213.81" gradientUnits="userSpaceOnUse">
<stop stop-color="#AB5555"/>
<stop offset="1" stop-color="#AB5555" stop-opacity="0"/>
</linearGradient>
<linearGradient id="paint14_linear_4_3" x1="2178.73" y1="2500.2" x2="2178.73" y2="3048.94" gradientUnits="userSpaceOnUse">
<stop stop-color="#AB5555"/>
<stop offset="1" stop-color="#AB5555" stop-opacity="0"/>
</linearGradient>
<linearGradient id="paint15_linear_4_3" x1="2262.44" y1="1869.6" x2="2262.44" y2="2737.07" gradientUnits="userSpaceOnUse">
<stop stop-color="#AB5555"/>
<stop offset="1" stop-color="#AB5555" stop-opacity="0"/>
</linearGradient>
<linearGradient id="paint16_linear_4_3" x1="2101.98" y1="1685" x2="2101.98" y2="2586.6" gradientUnits="userSpaceOnUse">
<stop stop-color="#AB5555"/>
<stop offset="1" stop-color="#AB5555" stop-opacity="0"/>
</linearGradient>
<linearGradient id="paint17_linear_4_3" x1="1641.1" y1="1800" x2="1641.1" y2="2915.66" gradientUnits="userSpaceOnUse">
<stop stop-color="#AB5555"/>
<stop offset="1" stop-color="#AB5555" stop-opacity="0"/>
</linearGradient>
<linearGradient id="paint18_linear_4_3" x1="1973.49" y1="3490.47" x2="1939.89" y2="1167.45" gradientUnits="userSpaceOnUse">
<stop offset="0.0864582" stop-color="#F87909"/>
<stop offset="1" stop-color="#D3B6ED"/>
</linearGradient>
<linearGradient id="paint19_linear_4_3" x1="1955.07" y1="3644.72" x2="1955.07" y2="1613.25" gradientUnits="userSpaceOnUse">
<stop stop-color="#A33AFF"/>
<stop offset="1" stop-color="#E9F0E4"/>
</linearGradient>
<linearGradient id="paint20_linear_4_3" x1="1593.76" y1="1992.71" x2="1593.76" y2="1771.42" gradientUnits="userSpaceOnUse">
<stop stop-color="#A33AFF"/>
<stop offset="1" stop-color="#E9F0E4"/>
</linearGradient>
<linearGradient id="paint21_linear_4_3" x1="1907.8" y1="1795.44" x2="1907.8" y2="1632.45" gradientUnits="userSpaceOnUse">
<stop stop-color="#A33AFF"/>
<stop offset="1" stop-color="#E9F0E4"/>
</linearGradient>
<linearGradient id="paint22_linear_4_3" x1="1850.09" y1="1932.11" x2="1850.09" y2="1825.82" gradientUnits="userSpaceOnUse">
<stop stop-color="#A33AFF"/>
<stop offset="1" stop-color="#E9F0E4"/>
</linearGradient>
<linearGradient id="paint23_linear_4_3" x1="2466.45" y1="2181.88" x2="2466.45" y2="1879.99" gradientUnits="userSpaceOnUse">
<stop stop-color="#A33AFF"/>
<stop offset="1" stop-color="#E9F0E4"/>
</linearGradient>
<linearGradient id="paint24_linear_4_3" x1="2037.94" y1="2215.39" x2="2037.94" y2="2097.31" gradientUnits="userSpaceOnUse">
<stop stop-color="#A33AFF"/>
<stop offset="1" stop-color="#E9F0E4"/>
</linearGradient>
<linearGradient id="paint25_linear_4_3" x1="1380.92" y1="2439.66" x2="1380.92" y2="2178.11" gradientUnits="userSpaceOnUse">
<stop stop-color="#A33AFF"/>
<stop offset="1" stop-color="#E9F0E4"/>
</linearGradient>
<linearGradient id="paint26_linear_4_3" x1="2605.8" y1="1079" x2="2605.8" y2="1403.81" gradientUnits="userSpaceOnUse">
<stop stop-color="#AB5555"/>
<stop offset="1" stop-color="#FF0000" stop-opacity="0"/>
</linearGradient>
<linearGradient id="paint27_linear_4_3" x1="1417.2" y1="1415.75" x2="1417.2" y2="1613.6" gradientUnits="userSpaceOnUse">
<stop offset="0.0708332" stop-color="#AB5555"/>
<stop offset="1" stop-color="#FF0000" stop-opacity="0"/>
</linearGradient>
<linearGradient id="paint28_linear_4_3" x1="3022.8" y1="1456.55" x2="3022.8" y2="1654.4" gradientUnits="userSpaceOnUse">
<stop stop-color="#AB5555"/>
<stop offset="1" stop-color="#FF0000" stop-opacity="0"/>
</linearGradient>
<linearGradient id="paint29_linear_4_3" x1="1836.78" y1="2310.6" x2="1836.78" y2="3213.81" gradientUnits="userSpaceOnUse">
<stop stop-color="#AB5555"/>
<stop offset="1" stop-color="#AB5555" stop-opacity="0"/>
</linearGradient>
<linearGradient id="paint30_linear_4_3" x1="2178.73" y1="2500.2" x2="2178.73" y2="3048.94" gradientUnits="userSpaceOnUse">
<stop stop-color="#AB5555"/>
<stop offset="1" stop-color="#AB5555" stop-opacity="0"/>
</linearGradient>
<linearGradient id="paint31_linear_4_3" x1="2262.44" y1="1869.6" x2="2262.44" y2="2737.07" gradientUnits="userSpaceOnUse">
<stop stop-color="#AB5555"/>
<stop offset="1" stop-color="#AB5555" stop-opacity="0"/>
</linearGradient>
<linearGradient id="paint32_linear_4_3" x1="2101.98" y1="1685" x2="2101.98" y2="2586.6" gradientUnits="userSpaceOnUse">
<stop stop-color="#AB5555"/>
<stop offset="1" stop-color="#AB5555" stop-opacity="0"/>
</linearGradient>
<linearGradient id="paint33_linear_4_3" x1="1641.1" y1="1800" x2="1641.1" y2="2915.66" gradientUnits="userSpaceOnUse">
<stop stop-color="#AB5555"/>
<stop offset="1" stop-color="#AB5555" stop-opacity="0"/>
</linearGradient>
<linearGradient id="paint34_linear_4_3" x1="9475" y1="1491" x2="9475" y2="1870" gradientUnits="userSpaceOnUse">
<stop stop-color="#F87909"/>
<stop offset="1" stop-color="#D3B6ED" stop-opacity="0"/>
</linearGradient>
</defs>
</svg>
