<svg width="19271" height="7713" viewBox="0 0 19271 7713" fill="none" xmlns="http://www.w3.org/2000/svg">
<path opacity="0.54" d="M2770.68 6396.87C2744.03 6393.39 1668.71 6285.63 1651.33 5905.56C1633.95 5525.49 2170.45 5497.68 2197.1 5293.75C2223.75 5089.81 1176.25 5062 1328.04 4542.88C1479.84 4023.77 1937.54 4135 2151.91 3903.26C2367.44 3671.51 1731.29 2874.29 2036.04 2633.28C2340.78 2392.26 3011.7 2633.28 3236.49 2725.98C3460.13 2818.67 3791.53 2902.1 3872.64 2698.17C3953.75 2494.23 3388.29 2586.93 3388.29 2364.45C3388.29 2141.97 3808.91 2040 3808.91 2040C3808.91 2040 3460.13 2188.32 3593.38 2290.29C3727.8 2392.26 4435.79 2281.02 4668.7 2577.66C4901.6 2874.29 4462.44 3004.07 4560.93 3254.36C4659.43 3504.65 5895.8 3773.48 5922.45 4209.16C5949.11 4644.85 4990.83 4811.71 5107.86 5117.62C5223.73 5423.52 5797.31 5497.68 5698.82 5951.91C5600.32 6406.14 4301.37 6591.54 2770.68 6396.87Z" fill="url(#paint0_linear_1_52)"/>
<path d="M3617.72 6789.68C4624.37 6789.68 5440.42 5973.64 5440.42 4966.98C5440.42 3960.32 4624.37 3144.28 3617.72 3144.28C2611.07 3144.28 1795.02 3960.32 1795.02 4966.98C1795.02 5973.64 2611.07 6789.68 3617.72 6789.68Z" fill="url(#paint1_linear_1_52)"/>
<path opacity="0.2" d="M3026.76 3577.65C2923.63 3566.06 2814.71 3610.09 2734.76 3674.98C2675.66 3723.65 2631.63 3805.92 2655.96 3878.92C2661.76 3903.26 2674.5 3926.43 2694.2 3946.13C2830.93 4081.7 3127.57 3955.4 3182.03 3790.86C3219.11 3680.78 3131.05 3589.24 3026.76 3577.65Z" fill="url(#paint2_linear_1_52)"/>
<path opacity="0.2" d="M3745.18 3377.19C3701.15 3328.52 3625.83 3307.66 3550.51 3311.14C3538.92 3307.66 3527.34 3306.5 3513.43 3308.82C3433.48 3321.57 3316.44 3364.44 3288.64 3451.35C3259.67 3544.05 3346.57 3604.3 3426.53 3617.05C3506.48 3630.95 3589.91 3615.89 3660.59 3576.49C3728.96 3538.25 3815.86 3455.98 3745.18 3377.19Z" fill="url(#paint3_linear_1_52)"/>
<path opacity="0.2" d="M3527.34 3768.84C3521.54 3727.13 3491.42 3694.68 3449.7 3686.57C3442.75 3685.41 3435.8 3684.25 3427.68 3684.25C3419.57 3681.94 3411.46 3680.78 3403.35 3680.78C3387.13 3680.78 3366.27 3685.41 3352.37 3693.52C3317.6 3714.38 3296.75 3750.3 3302.54 3790.86C3312.97 3870.81 3403.35 3910.21 3472.88 3868.49C3507.64 3848.8 3533.13 3811.72 3527.34 3768.84Z" fill="url(#paint4_linear_1_52)"/>
<path opacity="0.2" d="M4834.4 3798.97C4715.05 3767.68 4589.9 3792.02 4478.66 3840.68C4380.17 3883.56 4250.39 3954.24 4215.63 4064.32C4214.47 4068.96 4213.31 4073.59 4212.15 4078.23C4195.93 4114.15 4188.98 4152.39 4194.77 4190.62C4213.31 4309.97 4357 4351.69 4460.12 4364.44C4579.47 4379.5 4702.3 4354.01 4805.43 4291.43C4896.97 4235.81 4996.62 4140.8 5016.32 4031.88C5038.34 3911.37 4941 3826.78 4834.4 3798.97Z" fill="url(#paint5_linear_1_52)"/>
<path opacity="0.2" d="M3849.47 4214.96C3804.28 4202.21 3761.4 4198.73 3717.37 4218.43C3676.81 4236.97 3650.16 4279.85 3651.32 4325.04C3652.48 4370.23 3681.45 4408.47 3724.32 4421.21C3728.96 4423.53 3734.75 4425.85 3740.54 4427.01C3781.1 4438.59 3829.77 4425.85 3859.89 4395.72C3890.02 4365.59 3900.45 4327.35 3905.09 4285.64C3908.56 4255.51 3878.43 4223.07 3849.47 4214.96Z" fill="url(#paint6_linear_1_52)"/>
<path opacity="0.2" d="M2814.71 4395.72C2747.5 4357.48 2659.44 4357.48 2585.28 4364.43C2574.85 4365.59 2565.58 4366.75 2555.15 4367.91C2549.36 4366.75 2543.56 4366.75 2537.77 4366.75C2441.6 4369.07 2353.53 4408.47 2270.1 4454.82C2198.26 4494.21 2135.69 4552.15 2121.78 4636.74C2089.34 4837.2 2345.42 4881.23 2491.42 4862.69C2636.26 4844.15 2842.52 4759.57 2891.19 4606.61C2916.68 4526.66 2888.87 4437.44 2814.71 4395.72Z" fill="url(#paint7_linear_1_52)"/>
<path d="M4979.24 5418.89C4971.13 5428.16 4954.91 5439.75 4939.84 5477.99C4938.68 5481.46 4937.52 5484.94 4935.21 5488.41C4932.89 5493.05 4927.1 5493.05 4924.78 5488.41C4917.83 5479.14 4917.83 5462.92 4894.65 5437.43C4881.9 5422.37 4868 5416.57 4879.59 5407.3C4907.4 5384.13 4916.67 5348.21 4921.3 5338.94C4923.62 5335.46 4928.25 5334.3 4931.73 5337.78C4935.21 5341.25 4936.37 5345.89 4938.68 5350.52C4952.59 5382.97 4971.13 5398.03 4978.08 5406.14C4979.24 5408.46 4981.56 5415.41 4979.24 5418.89Z" fill="#FFE8D7"/>
<path d="M5106.7 5537.08C5100.91 5542.88 5090.48 5550.99 5080.05 5577.64C5078.89 5579.95 5077.73 5582.27 5076.57 5584.59C5075.41 5588.07 5070.78 5588.07 5069.62 5584.59C5064.99 5577.64 5064.99 5568.37 5049.92 5549.83C5040.65 5539.4 5032.54 5535.92 5039.49 5530.13C5058.03 5513.91 5064.99 5490.73 5067.3 5484.94C5068.46 5482.62 5071.94 5481.46 5074.26 5484.94C5076.57 5487.26 5077.73 5490.73 5078.89 5493.05C5088.16 5515.07 5100.91 5525.49 5105.54 5530.13C5107.86 5531.29 5109.02 5535.92 5106.7 5537.08Z" fill="#FFE8D7"/>
<path d="M5182.02 5296.06C5172.75 5306.49 5154.21 5320.4 5136.83 5364.43C5135.67 5367.91 5133.35 5372.54 5132.19 5376.02C5128.72 5380.65 5122.92 5381.81 5119.45 5376.02C5111.33 5364.43 5111.33 5347.05 5084.68 5316.92C5069.62 5299.54 5054.56 5293.75 5067.3 5282.16C5098.59 5255.51 5110.18 5214.95 5115.97 5203.36C5118.29 5198.73 5124.08 5198.73 5127.56 5202.21C5131.03 5206.84 5133.35 5211.48 5134.51 5217.27C5149.57 5255.51 5171.59 5272.89 5179.7 5281C5183.18 5284.48 5185.49 5291.43 5182.02 5296.06Z" fill="#FFE8D7"/>
<path d="M3543.56 6080.14C3282.84 5941.1 3093.97 5663 3058.05 5362.88C3026.76 5103.33 3110.19 4828.7 3359.32 4616.65C3261.98 4640.99 3161.17 4685.02 3061.52 4752.23C3038.35 4769.61 3016.33 4786.99 2995.47 4804.37C2745.19 5017.58 2661.76 5292.2 2693.04 5552.92C2728.96 5851.87 2916.68 6132.29 3178.55 6270.18C3333.83 6352.45 3516.91 6384.89 3709.26 6342.02C3812.39 6318.85 3917.83 6273.65 4023.28 6202.97C4047.61 6185.59 4070.79 6167.05 4092.8 6147.35C4087.01 6148.51 4081.21 6149.67 4075.42 6151.99C3881.91 6194.86 3699.99 6162.42 3543.56 6080.14Z" fill="url(#paint8_linear_1_52)"/>
<path d="M4576 5496.14C4470.55 5564.5 4366.26 5608.54 4263.14 5632.87C4257.34 5634.03 4250.39 5635.19 4244.6 5637.51C4041.82 5681.54 3849.47 5647.93 3683.77 5563.35C3453.18 5446.31 3278.21 5228.47 3202.89 4982.82C3185.51 5069.72 3182.03 5157.79 3192.46 5245.85C3229.54 5541.33 3418.41 5815.95 3682.61 5952.68C3841.35 6034.95 4025.59 6066.24 4217.95 6023.37C4223.74 6022.21 4229.53 6021.05 4235.33 6018.73C4333.82 5994.4 4434.63 5952.68 4534.28 5886.63C4712.73 5761.49 4821.65 5607.38 4874.95 5446.31C4913.19 5331.6 4921.3 5212.25 4907.4 5096.37C4849.46 5243.53 4741.7 5381.42 4576 5496.14Z" fill="url(#paint9_linear_1_52)"/>
<path d="M4677.97 3915.62C4615.39 3856.52 4542.39 3804.38 4465.92 3764.98C4642.04 4000.2 4717.36 4310.75 4621.19 4596.96C4615.39 4616.65 4607.28 4635.19 4599.17 4654.89C4536.6 4804.37 4426.52 4944.58 4257.34 5062.77C4149.58 5132.29 4042.98 5177.49 3937.53 5201.82C3931.74 5202.98 3924.78 5204.14 3918.99 5206.45C3750.97 5243.53 3589.91 5227.31 3445.06 5175.17C3514.59 5244.69 3595.7 5303.79 3686.08 5348.98C3851.78 5431.25 4045.29 5464.85 4249.23 5420.82C4255.03 5419.66 4261.98 5418.5 4267.77 5416.19C4370.9 5391.85 4476.34 5347.82 4581.79 5281.77C4748.65 5168.22 4855.25 5032.64 4917.83 4888.96C4925.94 4871.58 4932.89 4851.88 4938.68 4833.34C5047.6 4507.73 4924.78 4148.52 4677.97 3915.62Z" fill="url(#paint10_linear_1_52)"/>
<path d="M4336.14 3768.46C4304.85 3727.9 4270.09 3687.34 4231.85 3652.58C3994.31 3430.1 3642.05 3325.82 3275.89 3485.72C3513.43 3481.09 3730.12 3579.58 3892.34 3736.01C3930.58 3773.09 3965.34 3812.49 3996.63 3855.36C4169.28 4084.79 4241.12 4387.22 4148.42 4668.8C4142.63 4687.34 4134.52 4705.88 4127.56 4724.42C4066.15 4869.26 3959.55 5007.15 3793.85 5121.87C3778.78 5131.14 3763.72 5140.41 3749.81 5149.68C3767.2 5147.36 3786.89 5143.88 3805.43 5140.41C3811.23 5139.25 3818.18 5138.09 3823.97 5135.77C3925.94 5111.44 4030.23 5069.72 4134.52 5003.67C4299.06 4891.28 4406.82 4758.02 4465.92 4615.5C4474.03 4598.11 4480.98 4579.57 4486.77 4561.03C4580.63 4286.41 4507.63 3992.09 4336.14 3768.46Z" fill="url(#paint11_linear_1_52)"/>
<path d="M3682.61 4102.68C3682.61 4102.68 3633.94 4314.73 3939.85 4381.93C3939.85 4381.93 3976.93 4614.84 3849.47 4741.14C3849.47 4741.14 3855.26 4425.96 3246.92 4422.49C2638.58 4419.01 2260.83 5140.91 2644.37 5785.17C2644.37 5785.17 2263.15 5723.75 2184.35 5080.65C2105.56 4437.55 2703.47 4194.22 2703.47 4194.22C2703.47 4194.22 2302.55 4246.36 2078.91 4698.27C2078.91 4698.27 2154.23 3940.45 2988.52 3899.9C2988.52 3899.9 2740.55 3830.38 2288.64 3953.2C2288.64 3953.2 2679.14 3456.11 3350.05 3695.97C3350.05 3695.97 3756.77 3872.09 3887.7 4176.83C3887.7 4176.83 3739.39 4045.9 3682.61 4102.68Z" fill="url(#paint12_linear_1_52)"/>
<path d="M3617.72 6789.68C4624.37 6789.68 5440.42 5973.64 5440.42 4966.98C5440.42 3960.32 4624.37 3144.28 3617.72 3144.28C2611.07 3144.28 1795.02 3960.32 1795.02 4966.98C1795.02 5973.64 2611.07 6789.68 3617.72 6789.68Z" fill="url(#paint13_linear_1_52)"/>
<path opacity="0.2" d="M3026.76 3577.65C2923.63 3566.06 2814.71 3610.09 2734.76 3674.98C2675.66 3723.65 2631.63 3805.92 2655.96 3878.92C2661.76 3903.26 2674.5 3926.43 2694.2 3946.13C2830.93 4081.7 3127.57 3955.4 3182.03 3790.86C3219.11 3680.78 3131.05 3589.24 3026.76 3577.65Z" fill="url(#paint14_linear_1_52)"/>
<path opacity="0.2" d="M3745.18 3377.19C3701.15 3328.52 3625.83 3307.66 3550.51 3311.14C3538.92 3307.66 3527.34 3306.5 3513.43 3308.82C3433.48 3321.57 3316.44 3364.44 3288.64 3451.35C3259.67 3544.05 3346.57 3604.3 3426.53 3617.05C3506.48 3630.95 3589.91 3615.89 3660.59 3576.49C3728.96 3538.25 3815.86 3455.98 3745.18 3377.19Z" fill="url(#paint15_linear_1_52)"/>
<path opacity="0.2" d="M3527.34 3768.84C3521.54 3727.13 3491.42 3694.68 3449.7 3686.57C3442.75 3685.41 3435.8 3684.25 3427.68 3684.25C3419.57 3681.94 3411.46 3680.78 3403.35 3680.78C3387.13 3680.78 3366.27 3685.41 3352.37 3693.52C3317.6 3714.38 3296.75 3750.3 3302.54 3790.86C3312.97 3870.81 3403.35 3910.21 3472.88 3868.49C3507.64 3848.8 3533.13 3811.72 3527.34 3768.84Z" fill="url(#paint16_linear_1_52)"/>
<path opacity="0.2" d="M4834.4 3798.97C4715.05 3767.68 4589.9 3792.02 4478.66 3840.68C4380.17 3883.56 4250.39 3954.24 4215.63 4064.32C4214.47 4068.96 4213.31 4073.59 4212.15 4078.23C4195.93 4114.15 4188.98 4152.39 4194.77 4190.62C4213.31 4309.97 4357 4351.69 4460.12 4364.44C4579.47 4379.5 4702.3 4354.01 4805.43 4291.43C4896.97 4235.81 4996.62 4140.8 5016.32 4031.88C5038.34 3911.37 4941 3826.78 4834.4 3798.97Z" fill="url(#paint17_linear_1_52)"/>
<path opacity="0.2" d="M3849.47 4214.96C3804.28 4202.21 3761.4 4198.73 3717.37 4218.43C3676.81 4236.97 3650.16 4279.85 3651.32 4325.04C3652.48 4370.23 3681.45 4408.47 3724.32 4421.21C3728.96 4423.53 3734.75 4425.85 3740.54 4427.01C3781.1 4438.59 3829.77 4425.85 3859.89 4395.72C3890.02 4365.59 3900.45 4327.35 3905.09 4285.64C3908.56 4255.51 3878.43 4223.07 3849.47 4214.96Z" fill="url(#paint18_linear_1_52)"/>
<path opacity="0.2" d="M2814.71 4395.72C2747.5 4357.48 2659.44 4357.48 2585.28 4364.43C2574.85 4365.59 2565.58 4366.75 2555.15 4367.91C2549.36 4366.75 2543.56 4366.75 2537.77 4366.75C2441.6 4369.07 2353.53 4408.47 2270.1 4454.82C2198.26 4494.21 2135.69 4552.15 2121.78 4636.74C2089.34 4837.2 2345.42 4881.23 2491.42 4862.69C2636.26 4844.15 2842.52 4759.57 2891.19 4606.61C2916.68 4526.66 2888.87 4437.44 2814.71 4395.72Z" fill="url(#paint19_linear_1_52)"/>
<path d="M3543.56 6080.14C3282.84 5941.1 3093.97 5663 3058.05 5362.88C3026.76 5103.33 3110.19 4828.7 3359.32 4616.65C3261.98 4640.99 3161.17 4685.02 3061.52 4752.23C3038.35 4769.61 3016.33 4786.99 2995.47 4804.37C2745.19 5017.58 2661.76 5292.2 2693.04 5552.92C2728.96 5851.87 2916.68 6132.29 3178.55 6270.18C3333.83 6352.45 3516.91 6384.89 3709.26 6342.02C3812.39 6318.85 3917.83 6273.65 4023.28 6202.97C4047.61 6185.59 4070.79 6167.05 4092.8 6147.35C4087.01 6148.51 4081.21 6149.67 4075.42 6151.99C3881.91 6194.86 3699.99 6162.42 3543.56 6080.14Z" fill="url(#paint20_linear_1_52)"/>
<path d="M4576 5496.14C4470.55 5564.5 4366.26 5608.54 4263.14 5632.87C4257.34 5634.03 4250.39 5635.19 4244.6 5637.51C4041.82 5681.54 3849.47 5647.93 3683.77 5563.35C3453.18 5446.31 3278.21 5228.47 3202.89 4982.82C3185.51 5069.72 3182.03 5157.79 3192.46 5245.85C3229.54 5541.33 3418.41 5815.95 3682.61 5952.68C3841.35 6034.95 4025.59 6066.24 4217.95 6023.37C4223.74 6022.21 4229.53 6021.05 4235.33 6018.73C4333.82 5994.4 4434.63 5952.68 4534.28 5886.63C4712.73 5761.49 4821.65 5607.38 4874.95 5446.31C4913.19 5331.6 4921.3 5212.25 4907.4 5096.37C4849.46 5243.53 4741.7 5381.42 4576 5496.14Z" fill="url(#paint21_linear_1_52)"/>
<path d="M4677.97 3915.62C4615.39 3856.52 4542.39 3804.38 4465.92 3764.98C4642.04 4000.2 4717.36 4310.75 4621.19 4596.96C4615.39 4616.65 4607.28 4635.19 4599.17 4654.89C4536.6 4804.37 4426.52 4944.58 4257.34 5062.77C4149.58 5132.29 4042.98 5177.49 3937.53 5201.82C3931.74 5202.98 3924.78 5204.14 3918.99 5206.45C3750.97 5243.53 3589.91 5227.31 3445.06 5175.17C3514.59 5244.69 3595.7 5303.79 3686.08 5348.98C3851.78 5431.25 4045.29 5464.85 4249.23 5420.82C4255.03 5419.66 4261.98 5418.5 4267.77 5416.19C4370.9 5391.85 4476.34 5347.82 4581.79 5281.77C4748.65 5168.22 4855.25 5032.64 4917.83 4888.96C4925.94 4871.58 4932.89 4851.88 4938.68 4833.34C5047.6 4507.73 4924.78 4148.52 4677.97 3915.62Z" fill="url(#paint22_linear_1_52)"/>
<path d="M4336.14 3768.46C4304.85 3727.9 4270.09 3687.34 4231.85 3652.58C3994.31 3430.1 3642.05 3325.82 3275.89 3485.72C3513.43 3481.09 3730.12 3579.58 3892.34 3736.01C3930.58 3773.09 3965.34 3812.49 3996.63 3855.36C4169.28 4084.79 4241.12 4387.22 4148.42 4668.8C4142.63 4687.34 4134.52 4705.88 4127.56 4724.42C4066.15 4869.26 3959.55 5007.15 3793.85 5121.87C3778.78 5131.14 3763.72 5140.41 3749.81 5149.68C3767.2 5147.36 3786.89 5143.88 3805.43 5140.41C3811.23 5139.25 3818.18 5138.09 3823.97 5135.77C3925.94 5111.44 4030.23 5069.72 4134.52 5003.67C4299.06 4891.28 4406.82 4758.02 4465.92 4615.5C4474.03 4598.11 4480.98 4579.57 4486.77 4561.03C4580.63 4286.41 4507.63 3992.09 4336.14 3768.46Z" fill="url(#paint23_linear_1_52)"/>
<path d="M3682.61 4102.68C3682.61 4102.68 3633.94 4314.73 3939.85 4381.93C3939.85 4381.93 3976.93 4614.84 3849.47 4741.14C3849.47 4741.14 3855.26 4425.96 3246.92 4422.49C2638.58 4419.01 2260.83 5140.91 2644.37 5785.17C2644.37 5785.17 2263.15 5723.75 2184.35 5080.65C2105.56 4437.55 2703.47 4194.22 2703.47 4194.22C2703.47 4194.22 2302.55 4246.36 2078.91 4698.27C2078.91 4698.27 2154.23 3940.45 2988.52 3899.9C2988.52 3899.9 2740.55 3830.38 2288.64 3953.2C2288.64 3953.2 2679.14 3456.11 3350.05 3695.97C3350.05 3695.97 3756.77 3872.09 3887.7 4176.83C3887.7 4176.83 3739.39 4045.9 3682.61 4102.68Z" fill="url(#paint24_linear_1_52)"/>
<path d="M7067.5 4355C7083.5 4355 7095.5 4359.5 7103.5 4368.5C7111.5 4376.5 7118.5 4389 7124.5 4406L7492 5354C7493 5357 7493.5 5360.5 7493.5 5364.5C7493.5 5375.5 7489.5 5385 7481.5 5393C7473.5 5401 7464 5405 7453 5405H7345C7325 5405 7311 5401 7303 5393C7295 5384 7289.5 5375.5 7286.5 5367.5L7222 5201H6748L6683.5 5367.5C6680.5 5375.5 6675 5384 6667 5393C6659 5401 6645 5405 6625 5405H6517C6506 5405 6496.5 5401 6488.5 5393C6480.5 5385 6476.5 5375.5 6476.5 5364.5C6476.5 5360.5 6477 5357 6478 5354L6845.5 4406C6851.5 4389 6858.5 4376.5 6866.5 4368.5C6874.5 4359.5 6886.5 4355 6902.5 4355H7067.5ZM7150 5013.5L6985 4586L6820 5013.5H7150ZM8311.15 5405C8294.15 5405 8281.15 5400.5 8272.15 5391.5C8263.15 5382.5 8256.65 5375.5 8252.65 5370.5L7832.65 4746.5V5364.5C7832.65 5375.5 7828.65 5385 7820.65 5393C7812.65 5401 7803.15 5405 7792.15 5405H7670.65C7659.65 5405 7650.15 5401 7642.15 5393C7634.15 5385 7630.15 5375.5 7630.15 5364.5V4395.5C7630.15 4384.5 7634.15 4375 7642.15 4367C7650.15 4359 7659.65 4355 7670.65 4355H7775.65C7792.65 4355 7805.65 4359.5 7814.65 4368.5C7823.65 4377.5 7830.15 4384.5 7834.15 4389.5L8254.15 5013.5V4395.5C8254.15 4384.5 8258.15 4375 8266.15 4367C8274.15 4359 8283.65 4355 8294.65 4355H8416.15C8427.15 4355 8436.65 4359 8444.65 4367C8452.65 4375 8456.65 4384.5 8456.65 4395.5V5364.5C8456.65 5375.5 8452.65 5385 8444.65 5393C8436.65 5401 8427.15 5405 8416.15 5405H8311.15ZM8731.2 5405C8720.2 5405 8710.7 5401 8702.7 5393C8694.7 5385 8690.7 5375.5 8690.7 5364.5V4395.5C8690.7 4384.5 8694.7 4375 8702.7 4367C8710.7 4359 8720.2 4355 8731.2 4355H8852.7C8863.7 4355 8873.2 4359 8881.2 4367C8889.2 4375 8893.2 4384.5 8893.2 4395.5V5364.5C8893.2 5375.5 8889.2 5385 8881.2 5393C8873.2 5401 8863.7 5405 8852.7 5405H8731.2ZM9619.22 4890.5L9904.22 4395.5C9908.22 4390.5 9914.72 4382.5 9923.72 4371.5C9933.72 4360.5 9948.72 4355 9968.72 4355H10070.7C10081.7 4355 10091.2 4359 10099.2 4367C10107.2 4375 10111.2 4384.5 10111.2 4395.5V5364.5C10111.2 5375.5 10107.2 5385 10099.2 5393C10091.2 5401 10081.7 5405 10070.7 5405H9949.22C9938.22 5405 9928.72 5401 9920.72 5393C9912.72 5385 9908.72 5375.5 9908.72 5364.5V4778L9713.72 5115.5C9708.72 5123.5 9701.72 5132 9692.72 5141C9683.72 5149 9672.22 5153 9658.22 5153H9580.22C9566.22 5153 9554.72 5149 9545.72 5141C9536.72 5132 9529.72 5123.5 9524.72 5115.5L9329.72 4778V5364.5C9329.72 5375.5 9325.72 5385 9317.72 5393C9309.72 5401 9300.22 5405 9289.22 5405H9167.72C9156.72 5405 9147.22 5401 9139.22 5393C9131.22 5385 9127.22 5375.5 9127.22 5364.5V4395.5C9127.22 4384.5 9131.22 4375 9139.22 4367C9147.22 4359 9156.72 4355 9167.72 4355H9269.72C9289.72 4355 9304.22 4360.5 9313.22 4371.5C9323.22 4382.5 9330.22 4390.5 9334.22 4395.5L9619.22 4890.5ZM11043.5 5217.5C11054.5 5217.5 11064 5221.5 11072 5229.5C11080 5237.5 11084 5247 11084 5258V5364.5C11084 5375.5 11080 5385 11072 5393C11064 5401 11054.5 5405 11043.5 5405H10385C10374 5405 10364.5 5401 10356.5 5393C10348.5 5385 10344.5 5375.5 10344.5 5364.5V4395.5C10344.5 4384.5 10348.5 4375 10356.5 4367C10364.5 4359 10374 4355 10385 4355H11031.5C11042.5 4355 11052 4359 11060 4367C11068 4375 11072 4384.5 11072 4395.5V4502C11072 4513 11068 4522.5 11060 4530.5C11052 4538.5 11042.5 4542.5 11031.5 4542.5H10547V4781H10998.5C11009.5 4781 11019 4785 11027 4793C11035 4801 11039 4810.5 11039 4821.5V4928C11039 4939 11035 4948.5 11027 4956.5C11019 4964.5 11009.5 4968.5 10998.5 4968.5H10547V5217.5H11043.5ZM11630.3 4340C11697.3 4340 11756.3 4349 11807.3 4367C11858.3 4385 11900.8 4407.5 11934.8 4434.5C11968.8 4461.5 11994.3 4491.5 12011.3 4524.5C12029.3 4556.5 12039.3 4587 12041.3 4616C12042.3 4628 12038.3 4638 12029.3 4646C12021.3 4653 12011.8 4656.5 12000.8 4656.5H11895.8C11878.8 4656.5 11865.8 4653.5 11856.8 4647.5C11848.8 4640.5 11841.3 4631.5 11834.3 4620.5C11819.3 4595.5 11796.3 4574 11765.3 4556C11735.3 4537 11690.3 4527.5 11630.3 4527.5C11604.3 4527.5 11579.3 4530.5 11555.3 4536.5C11532.3 4541.5 11511.8 4549.5 11493.8 4560.5C11476.8 4570.5 11463.3 4583 11453.3 4598C11443.3 4613 11438.3 4630 11438.3 4649C11438.3 4672 11442.8 4691 11451.8 4706C11461.8 4720 11477.8 4732.5 11499.8 4743.5C11522.8 4753.5 11552.8 4763 11589.8 4772C11626.8 4781 11672.8 4791.5 11727.8 4803.5C11787.8 4816.5 11839.3 4832 11882.3 4850C11926.3 4867 11961.8 4888 11988.8 4913C12016.8 4937 12037.3 4965 12050.3 4997C12064.3 5029 12071.3 5065.5 12071.3 5106.5C12071.3 5151.5 12061.3 5193.5 12041.3 5232.5C12021.3 5270.5 11992.8 5303.5 11955.8 5331.5C11918.8 5358.5 11873.3 5380 11819.3 5396C11765.3 5412 11704.8 5420 11637.8 5420C11581.8 5420 11528.3 5413.5 11477.3 5400.5C11426.3 5386.5 11380.8 5367 11340.8 5342C11301.8 5316 11270.3 5285 11246.3 5249C11222.3 5213 11208.8 5173 11205.8 5129C11204.8 5117 11208.3 5107.5 11216.3 5100.5C11225.3 5092.5 11235.3 5088.5 11246.3 5088.5H11351.3C11368.3 5088.5 11381.3 5091.5 11390.3 5097.5C11399.3 5103.5 11406.8 5112.5 11412.8 5124.5C11419.8 5137.5 11428.3 5150.5 11438.3 5163.5C11448.3 5176.5 11461.8 5188 11478.8 5198C11495.8 5208 11516.8 5216.5 11541.8 5223.5C11567.8 5229.5 11599.8 5232.5 11637.8 5232.5C11667.8 5232.5 11696.8 5230.5 11724.8 5226.5C11752.8 5221.5 11777.3 5214 11798.3 5204C11819.3 5193 11836.3 5180 11849.3 5165C11862.3 5149 11868.8 5129.5 11868.8 5106.5C11868.8 5084.5 11861.8 5066.5 11847.8 5052.5C11833.8 5038.5 11812.3 5026.5 11783.3 5016.5C11755.3 5006.5 11720.3 4997 11678.3 4988C11636.3 4979 11587.8 4967.5 11532.8 4953.5C11482.8 4941.5 11438.8 4927.5 11400.8 4911.5C11363.8 4894.5 11332.8 4874 11307.8 4850C11283.8 4826 11265.8 4798 11253.8 4766C11241.8 4733 11235.8 4694 11235.8 4649C11235.8 4604 11245.8 4562.5 11265.8 4524.5C11285.8 4486.5 11313.3 4454 11348.3 4427C11383.3 4400 11424.8 4379 11472.8 4364C11521.8 4348 11574.3 4340 11630.3 4340ZM12718.7 4905.5L12589.7 5354C12584.7 5369 12578.2 5381.5 12570.2 5391.5C12563.2 5400.5 12552.2 5405 12537.2 5405H12415.7C12400.7 5405 12388.7 5400.5 12379.7 5391.5C12371.7 5381.5 12366.2 5369 12363.2 5354L12171.2 4407.5C12170.2 4402.5 12169.7 4398.5 12169.7 4395.5C12169.7 4384.5 12173.7 4375 12181.7 4367C12189.7 4359 12199.2 4355 12210.2 4355H12321.2C12331.2 4355 12340.7 4358 12349.7 4364C12358.7 4370 12364.7 4380.5 12367.7 4395.5L12493.7 5031.5L12604.7 4631C12606.7 4624 12611.2 4615 12618.2 4604C12626.2 4593 12639.2 4587.5 12657.2 4587.5H12780.2C12798.2 4587.5 12810.7 4593 12817.7 4604C12825.7 4615 12830.7 4624 12832.7 4631L12943.7 5031.5L13069.7 4395.5C13072.7 4380.5 13078.7 4370 13087.7 4364C13096.7 4358 13106.2 4355 13116.2 4355H13227.2C13238.2 4355 13247.7 4359 13255.7 4367C13263.7 4375 13267.7 4384.5 13267.7 4395.5C13267.7 4398.5 13267.2 4402.5 13266.2 4407.5L13074.2 5354C13071.2 5369 13065.2 5381.5 13056.2 5391.5C13048.2 5400.5 13036.7 5405 13021.7 5405H12900.2C12885.2 5405 12873.7 5400.5 12865.7 5391.5C12858.7 5381.5 12852.7 5369 12847.7 5354L12718.7 4905.5ZM13873.2 4355C13889.2 4355 13901.2 4359.5 13909.2 4368.5C13917.2 4376.5 13924.2 4389 13930.2 4406L14297.7 5354C14298.7 5357 14299.2 5360.5 14299.2 5364.5C14299.2 5375.5 14295.2 5385 14287.2 5393C14279.2 5401 14269.7 5405 14258.7 5405H14150.7C14130.7 5405 14116.7 5401 14108.7 5393C14100.7 5384 14095.2 5375.5 14092.2 5367.5L14027.7 5201H13553.7L13489.2 5367.5C13486.2 5375.5 13480.7 5384 13472.7 5393C13464.7 5401 13450.7 5405 13430.7 5405H13322.7C13311.7 5405 13302.2 5401 13294.2 5393C13286.2 5385 13282.2 5375.5 13282.2 5364.5C13282.2 5360.5 13282.7 5357 13283.7 5354L13651.2 4406C13657.2 4389 13664.2 4376.5 13672.2 4368.5C13680.2 4359.5 13692.2 4355 13708.2 4355H13873.2ZM13955.7 5013.5L13790.7 4586L13625.7 5013.5H13955.7ZM15027.9 4355C15038.9 4355 15048.4 4359 15056.4 4367C15064.4 4375 15068.4 4384.5 15068.4 4395.5V4502C15068.4 4513 15064.4 4522.5 15056.4 4530.5C15048.4 4538.5 15038.9 4542.5 15027.9 4542.5H14757.9V5364.5C14757.9 5375.5 14753.9 5385 14745.9 5393C14737.9 5401 14728.4 5405 14717.4 5405H14595.9C14584.9 5405 14575.4 5401 14567.4 5393C14559.4 5385 14555.4 5375.5 14555.4 5364.5V4542.5H14285.4C14274.4 4542.5 14264.9 4538.5 14256.9 4530.5C14248.9 4522.5 14244.9 4513 14244.9 4502V4395.5C14244.9 4384.5 14248.9 4375 14256.9 4367C14264.9 4359 14274.4 4355 14285.4 4355H15027.9ZM15842.5 5072C15844.5 5059 15849.5 5049.5 15857.5 5043.5C15866.5 5036.5 15876 5033 15886 5033H16007.5C16018.5 5033 16028 5037 16036 5045C16045 5052 16049 5061.5 16048 5073.5C16045 5114.5 16034.5 5155.5 16016.5 5196.5C15999.5 5237.5 15973 5274.5 15937 5307.5C15901 5340.5 15855.5 5367.5 15800.5 5388.5C15745.5 5409.5 15679 5420 15601 5420C15532 5420 15471 5410 15418 5390C15365 5369 15320 5340.5 15283 5304.5C15246 5267.5 15217 5223.5 15196 5172.5C15176 5121.5 15164 5066 15160 5006C15158 4968 15157 4926 15157 4880C15157 4834 15158 4792 15160 4754C15164 4694 15176 4638.5 15196 4587.5C15217 4536.5 15246 4493 15283 4457C15320 4420 15365 4391.5 15418 4371.5C15471 4350.5 15532 4340 15601 4340C15679 4340 15745.5 4350.5 15800.5 4371.5C15855.5 4392.5 15901 4419.5 15937 4452.5C15973 4485.5 15999.5 4523 16016.5 4565C16034.5 4606 16045 4646.5 16048 4686.5C16049 4698.5 16045 4708.5 16036 4716.5C16028 4723.5 16018.5 4727 16007.5 4727H15886C15876 4727 15866.5 4724 15857.5 4718C15848.5 4711 15843 4701 15841 4688C15838 4668 15831 4648.5 15820 4629.5C15809 4610.5 15794 4593.5 15775 4578.5C15756 4563.5 15732 4551.5 15703 4542.5C15674 4532.5 15640 4527.5 15601 4527.5C15562 4527.5 15528 4533.5 15499 4545.5C15470 4557.5 15445.5 4573.5 15425.5 4593.5C15406.5 4613.5 15391.5 4637.5 15380.5 4665.5C15370.5 4693.5 15364.5 4723 15362.5 4754C15360.5 4792 15359.5 4834 15359.5 4880C15359.5 4926 15360.5 4968 15362.5 5006C15364.5 5038 15370.5 5068 15380.5 5096C15391.5 5123 15406.5 5146.5 15425.5 5166.5C15445.5 5186.5 15470 5202.5 15499 5214.5C15528 5226.5 15562 5232.5 15601 5232.5C15640 5232.5 15674 5228 15703 5219C15732 5209 15756 5196.5 15775 5181.5C15795 5166.5 15810.5 5149.5 15821.5 5130.5C15832.5 5111.5 15839.5 5092 15842.5 5072ZM17040.4 4355C17051.4 4355 17060.9 4359 17068.9 4367C17076.9 4375 17080.9 4384.5 17080.9 4395.5V5364.5C17080.9 5375.5 17076.9 5385 17068.9 5393C17060.9 5401 17051.4 5405 17040.4 5405H16918.9C16907.9 5405 16898.4 5401 16890.4 5393C16882.4 5385 16878.4 5375.5 16878.4 5364.5V4968.5H16425.4V5364.5C16425.4 5375.5 16421.4 5385 16413.4 5393C16405.4 5401 16395.9 5405 16384.9 5405H16263.4C16252.4 5405 16242.9 5401.5 16234.9 5394.5C16226.9 5386.5 16222.9 5376.5 16222.9 5364.5V4395.5C16222.9 4384.5 16226.9 4375 16234.9 4367C16242.9 4359 16252.4 4355 16263.4 4355H16384.9C16395.9 4355 16405.4 4359 16413.4 4367C16421.4 4375 16425.4 4384.5 16425.4 4395.5V4781H16878.4V4395.5C16878.4 4384.5 16882.4 4375 16890.4 4367C16898.4 4359 16907.9 4355 16918.9 4355H17040.4Z" fill="url(#paint25_linear_1_52)"/>
<path d="M8848.64 4035.19C8837.2 4056.26 8810.34 4089.61 8802.9 4160.04C8802.72 4165.42 8801.02 4173.25 8800.83 4178.63C8796.96 4187.45 8786.74 4193.84 8776.89 4189.48C8755.02 4181.74 8745.07 4159.78 8677.76 4144.4C8639.51 4135.26 8607.89 4140.76 8625.2 4115.27C8668.71 4054.96 8667.25 3993.85 8671.5 3974.28C8673.2 3966.45 8684.08 3961.52 8692.6 3962.95C8701.78 3965.85 8708.79 3969.73 8714.29 3976.07C8764.48 4011.56 8815.78 4014.78 8835.66 4018.13C8844.18 4019.56 8852.52 4026.38 8848.64 4035.19Z" fill="url(#paint26_linear_1_52)"/>
<defs>
<linearGradient id="paint0_linear_1_52" x1="3653.81" y1="6895.26" x2="3588.92" y2="2408.97" gradientUnits="userSpaceOnUse">
<stop offset="0.0864582" stop-color="#271BB5"/>
<stop offset="1" stop-color="#D3B6ED"/>
</linearGradient>
<linearGradient id="paint1_linear_1_52" x1="3618.24" y1="7193.15" x2="3618.24" y2="3269.91" gradientUnits="userSpaceOnUse">
<stop stop-color="#A33AFF"/>
<stop offset="1" stop-color="#E9F0E4"/>
</linearGradient>
<linearGradient id="paint2_linear_1_52" x1="2920.46" y1="4002.73" x2="2920.46" y2="3575.37" gradientUnits="userSpaceOnUse">
<stop stop-color="#A33AFF"/>
<stop offset="1" stop-color="#E9F0E4"/>
</linearGradient>
<linearGradient id="paint3_linear_1_52" x1="3526.95" y1="3621.75" x2="3526.95" y2="3306.99" gradientUnits="userSpaceOnUse">
<stop stop-color="#A33AFF"/>
<stop offset="1" stop-color="#E9F0E4"/>
</linearGradient>
<linearGradient id="paint4_linear_1_52" x1="3415.5" y1="3885.71" x2="3415.5" y2="3680.43" gradientUnits="userSpaceOnUse">
<stop stop-color="#A33AFF"/>
<stop offset="1" stop-color="#E9F0E4"/>
</linearGradient>
<linearGradient id="paint5_linear_1_52" x1="4605.83" y1="4368.07" x2="4605.83" y2="3785.05" gradientUnits="userSpaceOnUse">
<stop stop-color="#A33AFF"/>
<stop offset="1" stop-color="#E9F0E4"/>
</linearGradient>
<linearGradient id="paint6_linear_1_52" x1="3778.28" y1="4432.78" x2="3778.28" y2="4204.74" gradientUnits="userSpaceOnUse">
<stop stop-color="#A33AFF"/>
<stop offset="1" stop-color="#E9F0E4"/>
</linearGradient>
<linearGradient id="paint7_linear_1_52" x1="2509.43" y1="4865.9" x2="2509.43" y2="4360.78" gradientUnits="userSpaceOnUse">
<stop stop-color="#A33AFF"/>
<stop offset="1" stop-color="#E9F0E4"/>
</linearGradient>
<linearGradient id="paint8_linear_1_52" x1="3389.79" y1="4616.65" x2="3389.79" y2="6360.97" gradientUnits="userSpaceOnUse">
<stop stop-color="#AB5555"/>
<stop offset="1" stop-color="#AB5555" stop-opacity="0"/>
</linearGradient>
<linearGradient id="paint9_linear_1_52" x1="4050.18" y1="4982.82" x2="4050.18" y2="6042.56" gradientUnits="userSpaceOnUse">
<stop stop-color="#AB5555"/>
<stop offset="1" stop-color="#AB5555" stop-opacity="0"/>
</linearGradient>
<linearGradient id="paint10_linear_1_52" x1="4211.84" y1="3764.98" x2="4211.84" y2="5440.27" gradientUnits="userSpaceOnUse">
<stop stop-color="#AB5555"/>
<stop offset="1" stop-color="#AB5555" stop-opacity="0"/>
</linearGradient>
<linearGradient id="paint11_linear_1_52" x1="3901.96" y1="3408.47" x2="3901.96" y2="5149.68" gradientUnits="userSpaceOnUse">
<stop stop-color="#AB5555"/>
<stop offset="1" stop-color="#AB5555" stop-opacity="0"/>
</linearGradient>
<linearGradient id="paint12_linear_1_52" x1="3011.89" y1="3630.57" x2="3011.89" y2="5785.17" gradientUnits="userSpaceOnUse">
<stop stop-color="#AB5555"/>
<stop offset="1" stop-color="#AB5555" stop-opacity="0"/>
</linearGradient>
<linearGradient id="paint13_linear_1_52" x1="3618.24" y1="7193.15" x2="3618.24" y2="3269.91" gradientUnits="userSpaceOnUse">
<stop stop-color="#A33AFF"/>
<stop offset="1" stop-color="#E9F0E4"/>
</linearGradient>
<linearGradient id="paint14_linear_1_52" x1="2920.46" y1="4002.73" x2="2920.46" y2="3575.37" gradientUnits="userSpaceOnUse">
<stop stop-color="#A33AFF"/>
<stop offset="1" stop-color="#E9F0E4"/>
</linearGradient>
<linearGradient id="paint15_linear_1_52" x1="3526.95" y1="3621.75" x2="3526.95" y2="3306.99" gradientUnits="userSpaceOnUse">
<stop stop-color="#FFC83A"/>
<stop offset="1" stop-color="#E9F0E4"/>
</linearGradient>
<linearGradient id="paint16_linear_1_52" x1="3415.5" y1="3885.71" x2="3415.5" y2="3680.43" gradientUnits="userSpaceOnUse">
<stop stop-color="#A33AFF"/>
<stop offset="1" stop-color="#E9F0E4"/>
</linearGradient>
<linearGradient id="paint17_linear_1_52" x1="4605.83" y1="4368.07" x2="4605.83" y2="3785.05" gradientUnits="userSpaceOnUse">
<stop stop-color="#EFFF3A"/>
<stop offset="1" stop-color="#E9F0E4"/>
</linearGradient>
<linearGradient id="paint18_linear_1_52" x1="3778.28" y1="4432.78" x2="3778.28" y2="4204.74" gradientUnits="userSpaceOnUse">
<stop stop-color="#A33AFF"/>
<stop offset="1" stop-color="#E9F0E4"/>
</linearGradient>
<linearGradient id="paint19_linear_1_52" x1="2509.43" y1="4865.9" x2="2509.43" y2="4360.78" gradientUnits="userSpaceOnUse">
<stop stop-color="#D2C595"/>
<stop offset="1" stop-color="#E9F0E4"/>
</linearGradient>
<linearGradient id="paint20_linear_1_52" x1="3389.79" y1="4616.65" x2="3389.79" y2="6360.97" gradientUnits="userSpaceOnUse">
<stop stop-color="#88BEB8"/>
<stop offset="1" stop-color="#8337BF" stop-opacity="0"/>
</linearGradient>
<linearGradient id="paint21_linear_1_52" x1="4050.18" y1="4982.82" x2="4050.18" y2="6042.56" gradientUnits="userSpaceOnUse">
<stop stop-color="#88BEB8"/>
<stop offset="1" stop-color="#8337BF" stop-opacity="0"/>
</linearGradient>
<linearGradient id="paint22_linear_1_52" x1="4211.84" y1="3764.98" x2="4211.84" y2="5440.27" gradientUnits="userSpaceOnUse">
<stop stop-color="#8337BF"/>
<stop offset="1" stop-color="#88BEB8" stop-opacity="0"/>
</linearGradient>
<linearGradient id="paint23_linear_1_52" x1="3901.96" y1="3408.47" x2="3901.96" y2="5149.68" gradientUnits="userSpaceOnUse">
<stop stop-color="#8337BF"/>
<stop offset="1" stop-color="#88BEB8" stop-opacity="0"/>
</linearGradient>
<linearGradient id="paint24_linear_1_52" x1="3011.89" y1="3630.57" x2="3011.89" y2="5785.17" gradientUnits="userSpaceOnUse">
<stop stop-color="#8337BF"/>
<stop offset="1" stop-color="#88BEB8" stop-opacity="0"/>
</linearGradient>
<linearGradient id="paint25_linear_1_52" x1="11827.5" y1="4002" x2="11827.5" y2="5780" gradientUnits="userSpaceOnUse">
<stop stop-color="#312974"/>
<stop offset="1" stop-color="#796A8C"/>
</linearGradient>
<linearGradient id="paint26_linear_1_52" x1="8682.85" y1="3963.6" x2="8786.05" y2="4191.31" gradientUnits="userSpaceOnUse">
<stop stop-color="#2F2874"/>
<stop offset="1" stop-color="#796A8C"/>
</linearGradient>
</defs>
</svg>
