<svg width="3000" height="3000" viewBox="0 0 3000 3000" fill="none" xmlns="http://www.w3.org/2000/svg">
<path opacity="0.54" d="M1048.2 2285.4C1034.4 2283.6 477.6 2227.8 468.6 2031C459.6 1834.2 737.4 1819.8 751.2 1714.2C765 1608.6 222.6 1594.2 301.2 1325.4C379.8 1056.6 616.8 1114.2 727.8 994.2C839.4 874.2 510 461.4 667.8 336.6C825.6 211.8 1173 336.6 1289.4 384.6C1405.2 432.6 1576.8 475.8 1618.8 370.2C1660.8 264.6 1368 312.6 1368 197.4C1368 82.1999 1585.8 29.3999 1585.8 29.3999C1585.8 29.3999 1405.2 106.2 1474.2 159C1543.8 211.8 1910.4 154.2 2031 307.8C2151.6 461.4 1924.2 528.6 1975.2 658.2C2026.2 787.8 2666.4 927 2680.2 1152.6C2694 1378.2 2197.8 1464.6 2258.4 1623C2318.4 1781.4 2615.4 1819.8 2564.4 2055C2513.4 2290.2 1840.8 2386.2 1048.2 2285.4Z" fill="url(#paint0_linear_1_68)"/>
<path d="M1486.8 2488.8C2008.05 2488.8 2430.6 2066.25 2430.6 1545C2430.6 1023.75 2008.05 601.2 1486.8 601.2C965.554 601.2 543 1023.75 543 1545C543 2066.25 965.554 2488.8 1486.8 2488.8Z" fill="url(#paint1_linear_1_68)"/>
<path opacity="0.2" d="M1180.8 825.6C1127.4 819.6 1071 842.4 1029.6 876C999 901.2 976.2 943.8 988.8 981.6C991.8 994.2 998.4 1006.2 1008.6 1016.4C1079.4 1086.6 1233 1021.2 1261.2 936C1280.4 879 1234.8 831.6 1180.8 825.6Z" fill="url(#paint2_linear_1_68)"/>
<path opacity="0.2" d="M1552.8 721.8C1530 696.6 1491 685.8 1452 687.6C1446 685.8 1440 685.2 1432.8 686.4C1391.4 693 1330.8 715.2 1316.4 760.2C1301.4 808.2 1346.4 839.4 1387.8 846C1429.2 853.2 1472.4 845.4 1509 825C1544.4 805.2 1589.4 762.6 1552.8 721.8Z" fill="url(#paint3_linear_1_68)"/>
<path opacity="0.2" d="M1440 924.6C1437 903 1421.4 886.2 1399.8 882C1396.2 881.4 1392.6 880.8 1388.4 880.8C1384.2 879.6 1380 879 1375.8 879C1367.4 879 1356.6 881.4 1349.4 885.6C1331.4 896.4 1320.6 915 1323.6 936C1329 977.4 1375.8 997.8 1411.8 976.2C1429.8 966 1443 946.8 1440 924.6Z" fill="url(#paint4_linear_1_68)"/>
<path opacity="0.2" d="M2116.8 940.2C2055 924 1990.2 936.6 1932.6 961.8C1881.6 984 1814.4 1020.6 1796.4 1077.6C1795.8 1080 1795.2 1082.4 1794.6 1084.8C1786.2 1103.4 1782.6 1123.2 1785.6 1143C1795.2 1204.8 1869.6 1226.4 1923 1233C1984.8 1240.8 2048.4 1227.6 2101.8 1195.2C2149.2 1166.4 2200.8 1117.2 2211 1060.8C2222.4 998.4 2172 954.6 2116.8 940.2Z" fill="url(#paint5_linear_1_68)"/>
<path opacity="0.2" d="M1606.8 1155.6C1583.4 1149 1561.2 1147.2 1538.4 1157.4C1517.4 1167 1503.6 1189.2 1504.2 1212.6C1504.8 1236 1519.8 1255.8 1542 1262.4C1544.4 1263.6 1547.4 1264.8 1550.4 1265.4C1571.4 1271.4 1596.6 1264.8 1612.2 1249.2C1627.8 1233.6 1633.2 1213.8 1635.6 1192.2C1637.4 1176.6 1621.8 1159.8 1606.8 1155.6Z" fill="url(#paint6_linear_1_68)"/>
<path opacity="0.2" d="M1071 1249.2C1036.2 1229.4 990.6 1229.4 952.2 1233C946.8 1233.6 942 1234.2 936.6 1234.8C933.6 1234.2 930.6 1234.2 927.6 1234.2C877.8 1235.4 832.2 1255.8 789 1279.8C751.8 1300.2 719.4 1330.2 712.2 1374C695.4 1477.8 828 1500.6 903.6 1491C978.6 1481.4 1085.4 1437.6 1110.6 1358.4C1123.8 1317 1109.4 1270.8 1071 1249.2Z" fill="url(#paint7_linear_1_68)"/>
<path d="M2191.8 1779C2187.6 1783.8 2179.2 1789.8 2171.4 1809.6C2170.8 1811.4 2170.2 1813.2 2169 1815C2167.8 1817.4 2164.8 1817.4 2163.6 1815C2160 1810.2 2160 1801.8 2148 1788.6C2141.4 1780.8 2134.2 1777.8 2140.2 1773C2154.6 1761 2159.4 1742.4 2161.8 1737.6C2163 1735.8 2165.4 1735.2 2167.2 1737C2169 1738.8 2169.6 1741.2 2170.8 1743.6C2178 1760.4 2187.6 1768.2 2191.2 1772.4C2191.8 1773.6 2193 1777.2 2191.8 1779Z" fill="#FFE8D7"/>
<path d="M1705.2 558.6C1702.2 561.6 1696.8 565.8 1691.4 579.6C1690.8 580.8 1690.2 582 1689.6 583.2C1689 585 1686.6 585 1686 583.2C1683.6 579.6 1683.6 574.8 1675.8 565.2C1671 559.8 1666.8 558 1670.4 555C1680 546.6 1683.6 534.6 1684.8 531.6C1685.4 530.4 1687.2 529.8 1688.4 531.6C1689.6 532.8 1690.2 534.6 1690.8 535.8C1695.6 547.2 1702.2 552.6 1704.6 555C1705.2 555 1705.8 557.4 1705.2 558.6Z" fill="#FFE8D7"/>
<path d="M2257.8 1840.2C2254.8 1843.2 2249.4 1847.4 2244 1861.2C2243.4 1862.4 2242.8 1863.6 2242.2 1864.8C2241.6 1866.6 2239.2 1866.6 2238.6 1864.8C2236.2 1861.2 2236.2 1856.4 2228.4 1846.8C2223.6 1841.4 2219.4 1839.6 2223 1836.6C2232.6 1828.2 2236.2 1816.2 2237.4 1813.2C2238 1812 2239.8 1811.4 2241 1813.2C2242.2 1814.4 2242.8 1816.2 2243.4 1817.4C2248.2 1828.8 2254.8 1834.2 2257.2 1836.6C2258.4 1837.2 2259 1839.6 2257.8 1840.2Z" fill="#FFE8D7"/>
<path d="M2431.8 1125C2428.8 1128 2423.4 1132.2 2418 1146C2417.4 1147.2 2416.8 1148.4 2416.2 1149.6C2415.6 1151.4 2413.2 1151.4 2412.6 1149.6C2410.2 1146 2410.2 1141.2 2402.4 1131.6C2397.6 1126.2 2393.4 1124.4 2397 1121.4C2406.6 1113 2410.2 1101 2411.4 1098C2412 1096.8 2413.8 1096.2 2415 1098C2416.2 1099.2 2416.8 1101 2417.4 1102.2C2422.2 1113.6 2428.8 1119 2431.2 1121.4C2431.8 1121.4 2433 1123.8 2431.8 1125Z" fill="#FFE8D7"/>
<path d="M2296.8 1715.4C2292 1720.8 2282.4 1728 2273.4 1750.8C2272.8 1752.6 2271.6 1755 2271 1756.8C2269.2 1759.2 2266.2 1759.8 2264.4 1756.8C2260.2 1750.8 2260.2 1741.8 2246.4 1726.2C2238.6 1717.2 2230.8 1714.2 2237.4 1708.2C2253.6 1694.4 2259.6 1673.4 2262.6 1667.4C2263.8 1665 2266.8 1665 2268.6 1666.8C2270.4 1669.2 2271.6 1671.6 2272.2 1674.6C2280 1694.4 2291.4 1703.4 2295.6 1707.6C2297.4 1709.4 2298.6 1713 2296.8 1715.4Z" fill="#FFE8D7"/>
<path d="M516 1384.8C511.2 1390.2 501.6 1397.4 492.6 1420.2C492 1422 490.8 1424.4 490.2 1426.2C488.4 1428.6 485.4 1429.2 483.6 1426.2C479.4 1420.2 479.4 1411.2 465.6 1395.6C457.8 1386.6 450 1383.6 456.6 1377.6C472.8 1363.8 478.8 1342.8 481.8 1336.8C483 1334.4 486 1334.4 487.8 1336.2C489.6 1338.6 490.8 1341 491.4 1344C499.2 1363.8 510.6 1372.8 514.8 1377C516.6 1378.8 517.8 1383 516 1384.8Z" fill="#FFE8D7"/>
<path d="M1618.8 525.6C1614 531 1604.4 538.2 1595.4 561C1594.8 562.8 1593.6 565.2 1593 567C1591.2 569.4 1588.2 570 1586.4 567C1582.2 561 1582.2 552 1568.4 536.4C1560.6 527.4 1552.8 524.4 1559.4 518.4C1575.6 504.6 1581.6 483.6 1584.6 477.6C1585.8 475.2 1588.8 475.2 1590.6 477C1592.4 479.4 1593.6 481.8 1594.2 484.8C1602 504.6 1613.4 513.6 1617.6 517.8C1619.4 519.6 1620.6 523.8 1618.8 525.6Z" fill="#FFE8D7"/>
<path fill-rule="evenodd" clip-rule="evenodd" d="M2358.6 315.812C2305.2 287.612 2178.6 329.012 2169 325.412C2153.4 320.012 2178 287.612 2192.4 272.612C2190 269.612 2166.6 264.812 2158.8 284.012C2155.8 278.612 2145.6 275.012 2140.2 275.012C2149.8 257.012 2131.8 242.612 2128.2 242.612C2125.8 263.612 2115 301.412 2100.6 293.012C2092.2 288.212 2044.2 164.012 1989 140.012C1959 119.612 1840.2 143.612 1818 152.012C1880.4 160.412 1914 205.412 1899.6 235.412C1944.6 227.612 1975.8 278.012 1962.6 306.212C1995 303.212 2021.4 305.012 2041.8 341.012C2062.8 377.012 2075.4 432.212 2075.4 432.212C2075.4 432.212 2116.2 411.212 2146.2 403.412C2176.2 395.612 2230.2 396.212 2246.4 441.812C2260.2 413.612 2309.4 401.612 2341.2 446.012C2357.4 411.812 2413.8 414.212 2457.6 456.812C2448.6 429.212 2393.4 326.012 2358.6 315.812Z" fill="url(#paint8_linear_1_68)"/>
<path fill-rule="evenodd" clip-rule="evenodd" d="M1038.6 474C1005 488.4 976.2 564 971.4 567C963 572.4 957 548.4 955.2 535.8C952.8 535.8 942 545.4 948 556.2C944.4 555.6 939 559.2 936.6 561.6C931.8 550.2 918 553.2 916.8 555C925.8 564 939.6 583.8 930 586.8C924.6 589.2 847.8 564 815.4 581.4C794.4 588 760.8 652.8 756 666.6C783.6 640.2 817.8 642 826.2 660C839.4 636 875.4 640.2 883.8 657.6C894.6 641.4 905.4 629.4 930 633.6C954.6 637.2 985.8 652.2 985.8 652.2C985.8 652.2 991.2 625.2 999 607.8C1006.8 590.4 1027.8 565.8 1055.4 575.4C1047 558 1060.2 530.4 1093.2 532.2C1083 511.8 1105.8 486 1142.4 481.2C1126.2 474.6 1056.6 461.4 1038.6 474Z" fill="url(#paint9_linear_1_68)"/>
<path fill-rule="evenodd" clip-rule="evenodd" d="M2644.2 514.8C2610.6 529.2 2581.8 604.8 2577 607.8C2568.6 613.2 2562.6 589.2 2560.8 576.6C2558.4 576.6 2547.6 586.2 2553.6 597C2550 596.4 2544.6 600 2542.2 602.4C2537.4 591 2523.6 594 2522.4 595.8C2531.4 604.8 2545.2 624.6 2535.6 627.6C2530.2 630 2453.4 604.8 2421 622.2C2400 628.8 2366.4 693.6 2361.6 707.4C2389.2 681 2423.4 682.8 2431.8 700.8C2445 676.8 2481 681 2489.4 698.4C2500.2 682.2 2511 670.2 2535.6 674.4C2560.2 678 2591.4 693 2591.4 693C2591.4 693 2596.8 666 2604.6 648.6C2612.4 631.2 2633.4 606.6 2661 616.2C2652.6 598.8 2665.8 571.2 2698.8 573C2688.6 552.6 2711.4 526.8 2748 522C2731.8 515.4 2662.2 502.2 2644.2 514.8Z" fill="url(#paint10_linear_1_68)"/>
<path d="M1448.4 2121.4C1313.4 2049.4 1215.6 1905.4 1197 1750C1180.8 1615.6 1224 1473.4 1353 1363.6C1302.6 1376.2 1250.4 1399 1198.8 1433.8C1186.8 1442.8 1175.4 1451.8 1164.6 1460.8C1035 1571.2 991.8 1713.4 1008 1848.4C1026.6 2003.2 1123.8 2148.4 1259.4 2219.8C1339.8 2262.4 1434.6 2279.2 1534.2 2257C1587.6 2245 1642.2 2221.6 1696.8 2185C1709.4 2176 1721.4 2166.4 1732.8 2156.2C1729.8 2156.8 1726.8 2157.4 1723.8 2158.6C1623.6 2180.8 1529.4 2164 1448.4 2121.4Z" fill="url(#paint11_linear_1_68)"/>
<path d="M1983 1819C1928.4 1854.4 1874.4 1877.2 1821 1889.8C1818 1890.4 1814.4 1891 1811.4 1892.2C1706.4 1915 1606.8 1897.6 1521 1853.8C1401.6 1793.2 1311 1680.4 1272 1553.2C1263 1598.2 1261.2 1643.8 1266.6 1689.4C1285.8 1842.4 1383.6 1984.6 1520.4 2055.4C1602.6 2098 1698 2114.2 1797.6 2092C1800.6 2091.4 1803.6 2090.8 1806.6 2089.6C1857.6 2077 1909.8 2055.4 1961.4 2021.2C2053.8 1956.4 2110.2 1876.6 2137.8 1793.2C2157.6 1733.8 2161.8 1672 2154.6 1612C2124.6 1688.2 2068.8 1759.6 1983 1819Z" fill="url(#paint12_linear_1_68)"/>
<path d="M2035.8 1000.6C2003.4 970 1965.6 943 1926 922.6C2017.2 1044.4 2056.2 1205.2 2006.4 1353.4C2003.4 1363.6 1999.2 1373.2 1995 1383.4C1962.6 1460.8 1905.6 1533.4 1818 1594.6C1762.2 1630.6 1707 1654 1652.4 1666.6C1649.4 1667.2 1645.8 1667.8 1642.8 1669C1555.8 1688.2 1472.4 1679.8 1397.4 1652.8C1433.4 1688.8 1475.4 1719.4 1522.2 1742.8C1608 1785.4 1708.2 1802.8 1813.8 1780C1816.8 1779.4 1820.4 1778.8 1823.4 1777.6C1876.8 1765 1931.4 1742.2 1986 1708C2072.4 1649.2 2127.6 1579 2160 1504.6C2164.2 1495.6 2167.8 1485.4 2170.8 1475.8C2227.2 1307.2 2163.6 1121.2 2035.8 1000.6Z" fill="url(#paint13_linear_1_68)"/>
<path d="M1858.8 924.4C1842.6 903.4 1824.6 882.4 1804.8 864.4C1681.8 749.2 1499.4 695.2 1309.8 778C1432.8 775.6 1545 826.6 1629 907.6C1648.8 926.8 1666.8 947.2 1683 969.4C1772.4 1088.2 1809.6 1244.8 1761.6 1390.6C1758.6 1400.2 1754.4 1409.8 1750.8 1419.4C1719 1494.4 1663.8 1565.8 1578 1625.2C1570.2 1630 1562.4 1634.8 1555.2 1639.6C1564.2 1638.4 1574.4 1636.6 1584 1634.8C1587 1634.2 1590.6 1633.6 1593.6 1632.4C1646.4 1619.8 1700.4 1598.2 1754.4 1564C1839.6 1505.8 1895.4 1436.8 1926 1363C1930.2 1354 1933.8 1344.4 1936.8 1334.8C1985.4 1192.6 1947.6 1040.2 1858.8 924.4Z" fill="url(#paint14_linear_1_68)"/>
<path d="M1520.4 1097.46C1520.4 1097.46 1495.2 1207.26 1653.6 1242.06C1653.6 1242.06 1672.8 1362.66 1606.8 1428.06C1606.8 1428.06 1609.8 1264.86 1294.8 1263.06C979.8 1261.26 784.2 1635.06 982.8 1968.66C982.8 1968.66 785.4 1936.86 744.6 1603.86C703.8 1270.86 1013.4 1144.86 1013.4 1144.86C1013.4 1144.86 805.8 1171.86 690 1405.86C690 1405.86 729 1013.46 1161 992.464C1161 992.464 1032.6 956.464 798.6 1020.06C798.6 1020.06 1000.8 762.664 1348.2 886.864C1348.2 886.864 1558.8 978.064 1626.6 1135.86C1626.6 1135.86 1549.8 1068.06 1520.4 1097.46Z" fill="url(#paint15_linear_1_68)"/>
<path opacity="0.54" d="M1048.2 2285.4C1034.4 2283.6 477.6 2227.8 468.6 2031C459.6 1834.2 737.4 1819.8 751.2 1714.2C765 1608.6 222.6 1594.2 301.2 1325.4C379.8 1056.6 616.8 1114.2 727.8 994.2C839.4 874.2 510 461.4 667.8 336.6C825.6 211.8 1173 336.6 1289.4 384.6C1405.2 432.6 1576.8 475.8 1618.8 370.2C1660.8 264.6 1368 312.6 1368 197.4C1368 82.1999 1585.8 29.3999 1585.8 29.3999C1585.8 29.3999 1405.2 106.2 1474.2 159C1543.8 211.8 1910.4 154.2 2031 307.8C2151.6 461.4 1924.2 528.6 1975.2 658.2C2026.2 787.8 2666.4 927 2680.2 1152.6C2694 1378.2 2197.8 1464.6 2258.4 1623C2318.4 1781.4 2615.4 1819.8 2564.4 2055C2513.4 2290.2 1840.8 2386.2 1048.2 2285.4Z" fill="url(#paint16_linear_1_68)"/>
<path d="M1486.8 2488.8C2008.05 2488.8 2430.6 2066.25 2430.6 1545C2430.6 1023.75 2008.05 601.2 1486.8 601.2C965.554 601.2 543 1023.75 543 1545C543 2066.25 965.554 2488.8 1486.8 2488.8Z" fill="url(#paint17_linear_1_68)"/>
<path opacity="0.2" d="M1180.8 825.6C1127.4 819.6 1071 842.4 1029.6 876C999 901.2 976.2 943.8 988.8 981.6C991.8 994.2 998.4 1006.2 1008.6 1016.4C1079.4 1086.6 1233 1021.2 1261.2 936C1280.4 879 1234.8 831.6 1180.8 825.6Z" fill="url(#paint18_linear_1_68)"/>
<path opacity="0.2" d="M1552.8 721.8C1530 696.6 1491 685.8 1452 687.6C1446 685.8 1440 685.2 1432.8 686.4C1391.4 693 1330.8 715.2 1316.4 760.2C1301.4 808.2 1346.4 839.4 1387.8 846C1429.2 853.2 1472.4 845.4 1509 825C1544.4 805.2 1589.4 762.6 1552.8 721.8Z" fill="url(#paint19_linear_1_68)"/>
<path opacity="0.2" d="M1440 924.6C1437 903 1421.4 886.2 1399.8 882C1396.2 881.4 1392.6 880.8 1388.4 880.8C1384.2 879.6 1380 879 1375.8 879C1367.4 879 1356.6 881.4 1349.4 885.6C1331.4 896.4 1320.6 915 1323.6 936C1329 977.4 1375.8 997.8 1411.8 976.2C1429.8 966 1443 946.8 1440 924.6Z" fill="url(#paint20_linear_1_68)"/>
<path opacity="0.2" d="M2116.8 940.2C2055 924 1990.2 936.6 1932.6 961.8C1881.6 984 1814.4 1020.6 1796.4 1077.6C1795.8 1080 1795.2 1082.4 1794.6 1084.8C1786.2 1103.4 1782.6 1123.2 1785.6 1143C1795.2 1204.8 1869.6 1226.4 1923 1233C1984.8 1240.8 2048.4 1227.6 2101.8 1195.2C2149.2 1166.4 2200.8 1117.2 2211 1060.8C2222.4 998.4 2172 954.6 2116.8 940.2Z" fill="url(#paint21_linear_1_68)"/>
<path opacity="0.2" d="M1606.8 1155.6C1583.4 1149 1561.2 1147.2 1538.4 1157.4C1517.4 1167 1503.6 1189.2 1504.2 1212.6C1504.8 1236 1519.8 1255.8 1542 1262.4C1544.4 1263.6 1547.4 1264.8 1550.4 1265.4C1571.4 1271.4 1596.6 1264.8 1612.2 1249.2C1627.8 1233.6 1633.2 1213.8 1635.6 1192.2C1637.4 1176.6 1621.8 1159.8 1606.8 1155.6Z" fill="url(#paint22_linear_1_68)"/>
<path opacity="0.2" d="M1071 1249.2C1036.2 1229.4 990.6 1229.4 952.2 1233C946.8 1233.6 942 1234.2 936.6 1234.8C933.6 1234.2 930.6 1234.2 927.6 1234.2C877.8 1235.4 832.2 1255.8 789 1279.8C751.8 1300.2 719.4 1330.2 712.2 1374C695.4 1477.8 828 1500.6 903.6 1491C978.6 1481.4 1085.4 1437.6 1110.6 1358.4C1123.8 1317 1109.4 1270.8 1071 1249.2Z" fill="url(#paint23_linear_1_68)"/>
<path d="M2191.8 1779C2187.6 1783.8 2179.2 1789.8 2171.4 1809.6C2170.8 1811.4 2170.2 1813.2 2169 1815C2167.8 1817.4 2164.8 1817.4 2163.6 1815C2160 1810.2 2160 1801.8 2148 1788.6C2141.4 1780.8 2134.2 1777.8 2140.2 1773C2154.6 1761 2159.4 1742.4 2161.8 1737.6C2163 1735.8 2165.4 1735.2 2167.2 1737C2169 1738.8 2169.6 1741.2 2170.8 1743.6C2178 1760.4 2187.6 1768.2 2191.2 1772.4C2191.8 1773.6 2193 1777.2 2191.8 1779Z" fill="#FFE8D7"/>
<path d="M1705.2 558.6C1702.2 561.6 1696.8 565.8 1691.4 579.6C1690.8 580.8 1690.2 582 1689.6 583.2C1689 585 1686.6 585 1686 583.2C1683.6 579.6 1683.6 574.8 1675.8 565.2C1671 559.8 1666.8 558 1670.4 555C1680 546.6 1683.6 534.6 1684.8 531.6C1685.4 530.4 1687.2 529.8 1688.4 531.6C1689.6 532.8 1690.2 534.6 1690.8 535.8C1695.6 547.2 1702.2 552.6 1704.6 555C1705.2 555 1705.8 557.4 1705.2 558.6Z" fill="#FFE8D7"/>
<path d="M2257.8 1840.2C2254.8 1843.2 2249.4 1847.4 2244 1861.2C2243.4 1862.4 2242.8 1863.6 2242.2 1864.8C2241.6 1866.6 2239.2 1866.6 2238.6 1864.8C2236.2 1861.2 2236.2 1856.4 2228.4 1846.8C2223.6 1841.4 2219.4 1839.6 2223 1836.6C2232.6 1828.2 2236.2 1816.2 2237.4 1813.2C2238 1812 2239.8 1811.4 2241 1813.2C2242.2 1814.4 2242.8 1816.2 2243.4 1817.4C2248.2 1828.8 2254.8 1834.2 2257.2 1836.6C2258.4 1837.2 2259 1839.6 2257.8 1840.2Z" fill="#FFE8D7"/>
<path d="M2431.8 1125C2428.8 1128 2423.4 1132.2 2418 1146C2417.4 1147.2 2416.8 1148.4 2416.2 1149.6C2415.6 1151.4 2413.2 1151.4 2412.6 1149.6C2410.2 1146 2410.2 1141.2 2402.4 1131.6C2397.6 1126.2 2393.4 1124.4 2397 1121.4C2406.6 1113 2410.2 1101 2411.4 1098C2412 1096.8 2413.8 1096.2 2415 1098C2416.2 1099.2 2416.8 1101 2417.4 1102.2C2422.2 1113.6 2428.8 1119 2431.2 1121.4C2431.8 1121.4 2433 1123.8 2431.8 1125Z" fill="#FFE8D7"/>
<path d="M2296.8 1715.4C2292 1720.8 2282.4 1728 2273.4 1750.8C2272.8 1752.6 2271.6 1755 2271 1756.8C2269.2 1759.2 2266.2 1759.8 2264.4 1756.8C2260.2 1750.8 2260.2 1741.8 2246.4 1726.2C2238.6 1717.2 2230.8 1714.2 2237.4 1708.2C2253.6 1694.4 2259.6 1673.4 2262.6 1667.4C2263.8 1665 2266.8 1665 2268.6 1666.8C2270.4 1669.2 2271.6 1671.6 2272.2 1674.6C2280 1694.4 2291.4 1703.4 2295.6 1707.6C2297.4 1709.4 2298.6 1713 2296.8 1715.4Z" fill="#FFE8D7"/>
<path d="M516 1384.8C511.2 1390.2 501.6 1397.4 492.6 1420.2C492 1422 490.8 1424.4 490.2 1426.2C488.4 1428.6 485.4 1429.2 483.6 1426.2C479.4 1420.2 479.4 1411.2 465.6 1395.6C457.8 1386.6 450 1383.6 456.6 1377.6C472.8 1363.8 478.8 1342.8 481.8 1336.8C483 1334.4 486 1334.4 487.8 1336.2C489.6 1338.6 490.8 1341 491.4 1344C499.2 1363.8 510.6 1372.8 514.8 1377C516.6 1378.8 517.8 1383 516 1384.8Z" fill="#FFE8D7"/>
<path d="M1618.8 525.6C1614 531 1604.4 538.2 1595.4 561C1594.8 562.8 1593.6 565.2 1593 567C1591.2 569.4 1588.2 570 1586.4 567C1582.2 561 1582.2 552 1568.4 536.4C1560.6 527.4 1552.8 524.4 1559.4 518.4C1575.6 504.6 1581.6 483.6 1584.6 477.6C1585.8 475.2 1588.8 475.2 1590.6 477C1592.4 479.4 1593.6 481.8 1594.2 484.8C1602 504.6 1613.4 513.6 1617.6 517.8C1619.4 519.6 1620.6 523.8 1618.8 525.6Z" fill="#FFE8D7"/>
<path fill-rule="evenodd" clip-rule="evenodd" d="M2358.6 315.812C2305.2 287.612 2178.6 329.012 2169 325.412C2153.4 320.012 2178 287.612 2192.4 272.612C2190 269.612 2166.6 264.812 2158.8 284.012C2155.8 278.612 2145.6 275.012 2140.2 275.012C2149.8 257.012 2131.8 242.612 2128.2 242.612C2125.8 263.612 2115 301.412 2100.6 293.012C2092.2 288.212 2044.2 164.012 1989 140.012C1959 119.612 1840.2 143.612 1818 152.012C1880.4 160.412 1914 205.412 1899.6 235.412C1944.6 227.612 1975.8 278.012 1962.6 306.212C1995 303.212 2021.4 305.012 2041.8 341.012C2062.8 377.012 2075.4 432.212 2075.4 432.212C2075.4 432.212 2116.2 411.212 2146.2 403.412C2176.2 395.612 2230.2 396.212 2246.4 441.812C2260.2 413.612 2309.4 401.612 2341.2 446.012C2357.4 411.812 2413.8 414.212 2457.6 456.812C2448.6 429.212 2393.4 326.012 2358.6 315.812Z" fill="url(#paint24_linear_1_68)"/>
<path fill-rule="evenodd" clip-rule="evenodd" d="M1038.6 474C1005 488.4 976.2 564 971.4 567C963 572.4 957 548.4 955.2 535.8C952.8 535.8 942 545.4 948 556.2C944.4 555.6 939 559.2 936.6 561.6C931.8 550.2 918 553.2 916.8 555C925.8 564 939.6 583.8 930 586.8C924.6 589.2 847.8 564 815.4 581.4C794.4 588 760.8 652.8 756 666.6C783.6 640.2 817.8 642 826.2 660C839.4 636 875.4 640.2 883.8 657.6C894.6 641.4 905.4 629.4 930 633.6C954.6 637.2 985.8 652.2 985.8 652.2C985.8 652.2 991.2 625.2 999 607.8C1006.8 590.4 1027.8 565.8 1055.4 575.4C1047 558 1060.2 530.4 1093.2 532.2C1083 511.8 1105.8 486 1142.4 481.2C1126.2 474.6 1056.6 461.4 1038.6 474Z" fill="url(#paint25_linear_1_68)"/>
<path fill-rule="evenodd" clip-rule="evenodd" d="M2644.2 514.8C2610.6 529.2 2581.8 604.8 2577 607.8C2568.6 613.2 2562.6 589.2 2560.8 576.6C2558.4 576.6 2547.6 586.2 2553.6 597C2550 596.4 2544.6 600 2542.2 602.4C2537.4 591 2523.6 594 2522.4 595.8C2531.4 604.8 2545.2 624.6 2535.6 627.6C2530.2 630 2453.4 604.8 2421 622.2C2400 628.8 2366.4 693.6 2361.6 707.4C2389.2 681 2423.4 682.8 2431.8 700.8C2445 676.8 2481 681 2489.4 698.4C2500.2 682.2 2511 670.2 2535.6 674.4C2560.2 678 2591.4 693 2591.4 693C2591.4 693 2596.8 666 2604.6 648.6C2612.4 631.2 2633.4 606.6 2661 616.2C2652.6 598.8 2665.8 571.2 2698.8 573C2688.6 552.6 2711.4 526.8 2748 522C2731.8 515.4 2662.2 502.2 2644.2 514.8Z" fill="url(#paint26_linear_1_68)"/>
<path d="M1448.4 2121.4C1313.4 2049.4 1215.6 1905.4 1197 1750C1180.8 1615.6 1224 1473.4 1353 1363.6C1302.6 1376.2 1250.4 1399 1198.8 1433.8C1186.8 1442.8 1175.4 1451.8 1164.6 1460.8C1035 1571.2 991.8 1713.4 1008 1848.4C1026.6 2003.2 1123.8 2148.4 1259.4 2219.8C1339.8 2262.4 1434.6 2279.2 1534.2 2257C1587.6 2245 1642.2 2221.6 1696.8 2185C1709.4 2176 1721.4 2166.4 1732.8 2156.2C1729.8 2156.8 1726.8 2157.4 1723.8 2158.6C1623.6 2180.8 1529.4 2164 1448.4 2121.4Z" fill="url(#paint27_linear_1_68)"/>
<path d="M1983 1819C1928.4 1854.4 1874.4 1877.2 1821 1889.8C1818 1890.4 1814.4 1891 1811.4 1892.2C1706.4 1915 1606.8 1897.6 1521 1853.8C1401.6 1793.2 1311 1680.4 1272 1553.2C1263 1598.2 1261.2 1643.8 1266.6 1689.4C1285.8 1842.4 1383.6 1984.6 1520.4 2055.4C1602.6 2098 1698 2114.2 1797.6 2092C1800.6 2091.4 1803.6 2090.8 1806.6 2089.6C1857.6 2077 1909.8 2055.4 1961.4 2021.2C2053.8 1956.4 2110.2 1876.6 2137.8 1793.2C2157.6 1733.8 2161.8 1672 2154.6 1612C2124.6 1688.2 2068.8 1759.6 1983 1819Z" fill="url(#paint28_linear_1_68)"/>
<path d="M2035.8 1000.6C2003.4 970 1965.6 943 1926 922.6C2017.2 1044.4 2056.2 1205.2 2006.4 1353.4C2003.4 1363.6 1999.2 1373.2 1995 1383.4C1962.6 1460.8 1905.6 1533.4 1818 1594.6C1762.2 1630.6 1707 1654 1652.4 1666.6C1649.4 1667.2 1645.8 1667.8 1642.8 1669C1555.8 1688.2 1472.4 1679.8 1397.4 1652.8C1433.4 1688.8 1475.4 1719.4 1522.2 1742.8C1608 1785.4 1708.2 1802.8 1813.8 1780C1816.8 1779.4 1820.4 1778.8 1823.4 1777.6C1876.8 1765 1931.4 1742.2 1986 1708C2072.4 1649.2 2127.6 1579 2160 1504.6C2164.2 1495.6 2167.8 1485.4 2170.8 1475.8C2227.2 1307.2 2163.6 1121.2 2035.8 1000.6Z" fill="url(#paint29_linear_1_68)"/>
<path d="M1858.8 924.4C1842.6 903.4 1824.6 882.4 1804.8 864.4C1681.8 749.2 1499.4 695.2 1309.8 778C1432.8 775.6 1545 826.6 1629 907.6C1648.8 926.8 1666.8 947.2 1683 969.4C1772.4 1088.2 1809.6 1244.8 1761.6 1390.6C1758.6 1400.2 1754.4 1409.8 1750.8 1419.4C1719 1494.4 1663.8 1565.8 1578 1625.2C1570.2 1630 1562.4 1634.8 1555.2 1639.6C1564.2 1638.4 1574.4 1636.6 1584 1634.8C1587 1634.2 1590.6 1633.6 1593.6 1632.4C1646.4 1619.8 1700.4 1598.2 1754.4 1564C1839.6 1505.8 1895.4 1436.8 1926 1363C1930.2 1354 1933.8 1344.4 1936.8 1334.8C1985.4 1192.6 1947.6 1040.2 1858.8 924.4Z" fill="url(#paint30_linear_1_68)"/>
<path d="M1520.4 1097.46C1520.4 1097.46 1495.2 1207.26 1653.6 1242.06C1653.6 1242.06 1672.8 1362.66 1606.8 1428.06C1606.8 1428.06 1609.8 1264.86 1294.8 1263.06C979.8 1261.26 784.2 1635.06 982.8 1968.66C982.8 1968.66 785.4 1936.86 744.6 1603.86C703.8 1270.86 1013.4 1144.86 1013.4 1144.86C1013.4 1144.86 805.8 1171.86 690 1405.86C690 1405.86 729 1013.46 1161 992.464C1161 992.464 1032.6 956.464 798.6 1020.06C798.6 1020.06 1000.8 762.664 1348.2 886.864C1348.2 886.864 1558.8 978.064 1626.6 1135.86C1626.6 1135.86 1549.8 1068.06 1520.4 1097.46Z" fill="url(#paint31_linear_1_68)"/>
<defs>
<linearGradient id="paint0_linear_1_68" x1="1505.49" y1="2543.47" x2="1471.89" y2="220.455" gradientUnits="userSpaceOnUse">
<stop offset="0.0864582" stop-color="#F87909"/>
<stop offset="1" stop-color="#D3B6ED"/>
</linearGradient>
<linearGradient id="paint1_linear_1_68" x1="1487.07" y1="2697.72" x2="1487.07" y2="666.252" gradientUnits="userSpaceOnUse">
<stop stop-color="#A33AFF"/>
<stop offset="1" stop-color="#E9F0E4"/>
</linearGradient>
<linearGradient id="paint2_linear_1_68" x1="1125.76" y1="1045.71" x2="1125.76" y2="824.422" gradientUnits="userSpaceOnUse">
<stop stop-color="#A33AFF"/>
<stop offset="1" stop-color="#E9F0E4"/>
</linearGradient>
<linearGradient id="paint3_linear_1_68" x1="1439.8" y1="848.435" x2="1439.8" y2="685.453" gradientUnits="userSpaceOnUse">
<stop stop-color="#A33AFF"/>
<stop offset="1" stop-color="#E9F0E4"/>
</linearGradient>
<linearGradient id="paint4_linear_1_68" x1="1382.09" y1="985.114" x2="1382.09" y2="878.818" gradientUnits="userSpaceOnUse">
<stop stop-color="#A33AFF"/>
<stop offset="1" stop-color="#E9F0E4"/>
</linearGradient>
<linearGradient id="paint5_linear_1_68" x1="1998.45" y1="1234.88" x2="1998.45" y2="932.991" gradientUnits="userSpaceOnUse">
<stop stop-color="#A33AFF"/>
<stop offset="1" stop-color="#E9F0E4"/>
</linearGradient>
<linearGradient id="paint6_linear_1_68" x1="1569.94" y1="1268.39" x2="1569.94" y2="1150.31" gradientUnits="userSpaceOnUse">
<stop stop-color="#A33AFF"/>
<stop offset="1" stop-color="#E9F0E4"/>
</linearGradient>
<linearGradient id="paint7_linear_1_68" x1="912.924" y1="1492.66" x2="912.924" y2="1231.11" gradientUnits="userSpaceOnUse">
<stop stop-color="#A33AFF"/>
<stop offset="1" stop-color="#E9F0E4"/>
</linearGradient>
<linearGradient id="paint8_linear_1_68" x1="2137.8" y1="132" x2="2137.8" y2="456.812" gradientUnits="userSpaceOnUse">
<stop stop-color="#AB5555"/>
<stop offset="1" stop-color="#FF0000" stop-opacity="0"/>
</linearGradient>
<linearGradient id="paint9_linear_1_68" x1="949.2" y1="468.751" x2="949.2" y2="666.6" gradientUnits="userSpaceOnUse">
<stop offset="0.0708332" stop-color="#AB5555"/>
<stop offset="1" stop-color="#FF0000" stop-opacity="0"/>
</linearGradient>
<linearGradient id="paint10_linear_1_68" x1="2554.8" y1="509.551" x2="2554.8" y2="707.4" gradientUnits="userSpaceOnUse">
<stop stop-color="#AB5555"/>
<stop offset="1" stop-color="#FF0000" stop-opacity="0"/>
</linearGradient>
<linearGradient id="paint11_linear_1_68" x1="1368.78" y1="1363.6" x2="1368.78" y2="2266.81" gradientUnits="userSpaceOnUse">
<stop stop-color="#AB5555"/>
<stop offset="1" stop-color="#AB5555" stop-opacity="0"/>
</linearGradient>
<linearGradient id="paint12_linear_1_68" x1="1710.73" y1="1553.2" x2="1710.73" y2="2101.94" gradientUnits="userSpaceOnUse">
<stop stop-color="#AB5555"/>
<stop offset="1" stop-color="#AB5555" stop-opacity="0"/>
</linearGradient>
<linearGradient id="paint13_linear_1_68" x1="1794.44" y1="922.6" x2="1794.44" y2="1790.07" gradientUnits="userSpaceOnUse">
<stop stop-color="#AB5555"/>
<stop offset="1" stop-color="#AB5555" stop-opacity="0"/>
</linearGradient>
<linearGradient id="paint14_linear_1_68" x1="1633.98" y1="738" x2="1633.98" y2="1639.6" gradientUnits="userSpaceOnUse">
<stop stop-color="#AB5555"/>
<stop offset="1" stop-color="#AB5555" stop-opacity="0"/>
</linearGradient>
<linearGradient id="paint15_linear_1_68" x1="1173.1" y1="853" x2="1173.1" y2="1968.66" gradientUnits="userSpaceOnUse">
<stop stop-color="#AB5555"/>
<stop offset="1" stop-color="#AB5555" stop-opacity="0"/>
</linearGradient>
<linearGradient id="paint16_linear_1_68" x1="1505.49" y1="2543.47" x2="1471.89" y2="220.455" gradientUnits="userSpaceOnUse">
<stop offset="0.0864582" stop-color="#F87909"/>
<stop offset="1" stop-color="#D3B6ED"/>
</linearGradient>
<linearGradient id="paint17_linear_1_68" x1="1487.07" y1="2697.72" x2="1487.07" y2="666.252" gradientUnits="userSpaceOnUse">
<stop stop-color="#A33AFF"/>
<stop offset="1" stop-color="#E9F0E4"/>
</linearGradient>
<linearGradient id="paint18_linear_1_68" x1="1125.76" y1="1045.71" x2="1125.76" y2="824.422" gradientUnits="userSpaceOnUse">
<stop stop-color="#A33AFF"/>
<stop offset="1" stop-color="#E9F0E4"/>
</linearGradient>
<linearGradient id="paint19_linear_1_68" x1="1439.8" y1="848.435" x2="1439.8" y2="685.453" gradientUnits="userSpaceOnUse">
<stop stop-color="#A33AFF"/>
<stop offset="1" stop-color="#E9F0E4"/>
</linearGradient>
<linearGradient id="paint20_linear_1_68" x1="1382.09" y1="985.114" x2="1382.09" y2="878.818" gradientUnits="userSpaceOnUse">
<stop stop-color="#A33AFF"/>
<stop offset="1" stop-color="#E9F0E4"/>
</linearGradient>
<linearGradient id="paint21_linear_1_68" x1="1998.45" y1="1234.88" x2="1998.45" y2="932.991" gradientUnits="userSpaceOnUse">
<stop stop-color="#A33AFF"/>
<stop offset="1" stop-color="#E9F0E4"/>
</linearGradient>
<linearGradient id="paint22_linear_1_68" x1="1569.94" y1="1268.39" x2="1569.94" y2="1150.31" gradientUnits="userSpaceOnUse">
<stop stop-color="#A33AFF"/>
<stop offset="1" stop-color="#E9F0E4"/>
</linearGradient>
<linearGradient id="paint23_linear_1_68" x1="912.924" y1="1492.66" x2="912.924" y2="1231.11" gradientUnits="userSpaceOnUse">
<stop stop-color="#A33AFF"/>
<stop offset="1" stop-color="#E9F0E4"/>
</linearGradient>
<linearGradient id="paint24_linear_1_68" x1="2137.8" y1="132" x2="2137.8" y2="456.812" gradientUnits="userSpaceOnUse">
<stop stop-color="#AB5555"/>
<stop offset="1" stop-color="#FF0000" stop-opacity="0"/>
</linearGradient>
<linearGradient id="paint25_linear_1_68" x1="949.2" y1="468.751" x2="949.2" y2="666.6" gradientUnits="userSpaceOnUse">
<stop offset="0.0708332" stop-color="#AB5555"/>
<stop offset="1" stop-color="#FF0000" stop-opacity="0"/>
</linearGradient>
<linearGradient id="paint26_linear_1_68" x1="2554.8" y1="509.551" x2="2554.8" y2="707.4" gradientUnits="userSpaceOnUse">
<stop stop-color="#AB5555"/>
<stop offset="1" stop-color="#FF0000" stop-opacity="0"/>
</linearGradient>
<linearGradient id="paint27_linear_1_68" x1="1368.78" y1="1363.6" x2="1368.78" y2="2266.81" gradientUnits="userSpaceOnUse">
<stop stop-color="#AB5555"/>
<stop offset="1" stop-color="#AB5555" stop-opacity="0"/>
</linearGradient>
<linearGradient id="paint28_linear_1_68" x1="1710.73" y1="1553.2" x2="1710.73" y2="2101.94" gradientUnits="userSpaceOnUse">
<stop stop-color="#AB5555"/>
<stop offset="1" stop-color="#AB5555" stop-opacity="0"/>
</linearGradient>
<linearGradient id="paint29_linear_1_68" x1="1794.44" y1="922.6" x2="1794.44" y2="1790.07" gradientUnits="userSpaceOnUse">
<stop stop-color="#AB5555"/>
<stop offset="1" stop-color="#AB5555" stop-opacity="0"/>
</linearGradient>
<linearGradient id="paint30_linear_1_68" x1="1633.98" y1="738" x2="1633.98" y2="1639.6" gradientUnits="userSpaceOnUse">
<stop stop-color="#AB5555"/>
<stop offset="1" stop-color="#AB5555" stop-opacity="0"/>
</linearGradient>
<linearGradient id="paint31_linear_1_68" x1="1173.1" y1="853" x2="1173.1" y2="1968.66" gradientUnits="userSpaceOnUse">
<stop stop-color="#AB5555"/>
<stop offset="1" stop-color="#AB5555" stop-opacity="0"/>
</linearGradient>
</defs>
</svg>
